G75*
%MOIN*%
%OFA0B0*%
%FSLAX25Y25*%
%IPPOS*%
%LPD*%
%AMOC8*
5,1,8,0,0,1.08239X$1,22.5*
%
%ADD10C,0.00500*%
%ADD11C,0.00100*%
%ADD12C,0.00800*%
%ADD13C,0.00600*%
%ADD14C,0.02200*%
%ADD15R,0.03000X0.01800*%
%ADD16R,0.01800X0.03000*%
%ADD17C,0.00700*%
D10*
X0084095Y0067250D02*
X0084095Y0075250D01*
X0099634Y0070069D02*
X0099636Y0070107D01*
X0099642Y0070145D01*
X0099652Y0070182D01*
X0099665Y0070218D01*
X0099682Y0070253D01*
X0099703Y0070285D01*
X0099727Y0070315D01*
X0099754Y0070343D01*
X0099783Y0070367D01*
X0099815Y0070389D01*
X0099849Y0070407D01*
X0099884Y0070421D01*
X0099921Y0070432D01*
X0099959Y0070439D01*
X0099997Y0070442D01*
X0100036Y0070441D01*
X0100074Y0070436D01*
X0100111Y0070427D01*
X0100148Y0070415D01*
X0100182Y0070398D01*
X0100215Y0070378D01*
X0100246Y0070355D01*
X0100274Y0070329D01*
X0100299Y0070300D01*
X0100322Y0070269D01*
X0100341Y0070236D01*
X0100356Y0070201D01*
X0100368Y0070164D01*
X0100376Y0070126D01*
X0100380Y0070088D01*
X0100380Y0070050D01*
X0100376Y0070012D01*
X0100368Y0069974D01*
X0100356Y0069937D01*
X0100341Y0069902D01*
X0100322Y0069869D01*
X0100299Y0069838D01*
X0100274Y0069809D01*
X0100246Y0069783D01*
X0100215Y0069760D01*
X0100182Y0069740D01*
X0100148Y0069723D01*
X0100111Y0069711D01*
X0100074Y0069702D01*
X0100036Y0069697D01*
X0099997Y0069696D01*
X0099959Y0069699D01*
X0099921Y0069706D01*
X0099884Y0069717D01*
X0099849Y0069731D01*
X0099815Y0069749D01*
X0099783Y0069771D01*
X0099754Y0069795D01*
X0099727Y0069823D01*
X0099703Y0069853D01*
X0099682Y0069885D01*
X0099665Y0069920D01*
X0099652Y0069956D01*
X0099642Y0069993D01*
X0099636Y0070031D01*
X0099634Y0070069D01*
X0104845Y0088500D02*
X0104845Y0096500D01*
X0160095Y0058000D02*
X0160097Y0058044D01*
X0160103Y0058088D01*
X0160113Y0058131D01*
X0160126Y0058173D01*
X0160143Y0058214D01*
X0160164Y0058253D01*
X0160188Y0058290D01*
X0160215Y0058325D01*
X0160245Y0058357D01*
X0160278Y0058387D01*
X0160314Y0058413D01*
X0160351Y0058437D01*
X0160391Y0058456D01*
X0160432Y0058473D01*
X0160475Y0058485D01*
X0160518Y0058494D01*
X0160562Y0058499D01*
X0160606Y0058500D01*
X0160650Y0058497D01*
X0160694Y0058490D01*
X0160737Y0058479D01*
X0160779Y0058465D01*
X0160819Y0058447D01*
X0160858Y0058425D01*
X0160894Y0058401D01*
X0160928Y0058373D01*
X0160960Y0058342D01*
X0160989Y0058308D01*
X0161015Y0058272D01*
X0161037Y0058234D01*
X0161056Y0058194D01*
X0161071Y0058152D01*
X0161083Y0058110D01*
X0161091Y0058066D01*
X0161095Y0058022D01*
X0161095Y0057978D01*
X0161091Y0057934D01*
X0161083Y0057890D01*
X0161071Y0057848D01*
X0161056Y0057806D01*
X0161037Y0057766D01*
X0161015Y0057728D01*
X0160989Y0057692D01*
X0160960Y0057658D01*
X0160928Y0057627D01*
X0160894Y0057599D01*
X0160858Y0057575D01*
X0160819Y0057553D01*
X0160779Y0057535D01*
X0160737Y0057521D01*
X0160694Y0057510D01*
X0160650Y0057503D01*
X0160606Y0057500D01*
X0160562Y0057501D01*
X0160518Y0057506D01*
X0160475Y0057515D01*
X0160432Y0057527D01*
X0160391Y0057544D01*
X0160351Y0057563D01*
X0160314Y0057587D01*
X0160278Y0057613D01*
X0160245Y0057643D01*
X0160215Y0057675D01*
X0160188Y0057710D01*
X0160164Y0057747D01*
X0160143Y0057786D01*
X0160126Y0057827D01*
X0160113Y0057869D01*
X0160103Y0057912D01*
X0160097Y0057956D01*
X0160095Y0058000D01*
D11*
X0061321Y0039300D02*
X0061321Y0039050D01*
X0061571Y0038800D01*
X0062072Y0038800D01*
X0062322Y0039050D01*
X0062322Y0039551D01*
X0061571Y0039551D01*
X0061321Y0039300D01*
X0061821Y0040051D02*
X0062322Y0039551D01*
X0062794Y0039050D02*
X0062794Y0040301D01*
X0063795Y0040301D02*
X0063795Y0039050D01*
X0063545Y0038800D01*
X0063045Y0038800D01*
X0062794Y0039050D01*
X0061821Y0040051D02*
X0061321Y0040301D01*
X0079821Y0031801D02*
X0079821Y0030800D01*
X0080071Y0030550D01*
X0080572Y0030550D01*
X0080822Y0030800D01*
X0081294Y0030800D02*
X0081545Y0030550D01*
X0082045Y0030550D01*
X0082295Y0030800D01*
X0082295Y0031801D01*
X0082045Y0032051D01*
X0081545Y0032051D01*
X0081294Y0031801D01*
X0080822Y0031801D02*
X0080822Y0031551D01*
X0080572Y0031301D01*
X0079821Y0031301D01*
X0079821Y0031801D02*
X0080071Y0032051D01*
X0080572Y0032051D01*
X0080822Y0031801D01*
X0103821Y0040550D02*
X0103821Y0042051D01*
X0104572Y0041301D01*
X0103571Y0041301D01*
X0105044Y0041301D02*
X0105295Y0041050D01*
X0106045Y0041050D01*
X0106045Y0040550D02*
X0106045Y0042051D01*
X0105295Y0042051D01*
X0105044Y0041801D01*
X0105044Y0041301D01*
X0105545Y0041050D02*
X0105044Y0040550D01*
X0117268Y0037700D02*
X0118268Y0037700D01*
X0118741Y0037700D02*
X0119241Y0038200D01*
X0118991Y0037700D02*
X0119491Y0037700D01*
X0119742Y0037950D01*
X0119742Y0038951D01*
X0119491Y0039201D01*
X0118991Y0039201D01*
X0118741Y0038951D01*
X0118741Y0037950D01*
X0118991Y0037700D01*
X0117768Y0037700D02*
X0117768Y0039201D01*
X0118268Y0038701D01*
X0123295Y0038578D02*
X0123295Y0037577D01*
X0124296Y0038578D01*
X0124546Y0038578D01*
X0124796Y0038327D01*
X0124796Y0037827D01*
X0124546Y0037577D01*
X0124546Y0037104D02*
X0124796Y0036854D01*
X0124796Y0036103D01*
X0123295Y0036103D01*
X0123295Y0036854D01*
X0123545Y0037104D01*
X0124546Y0037104D01*
X0114241Y0024451D02*
X0114492Y0024201D01*
X0114492Y0023200D01*
X0114241Y0022950D01*
X0113741Y0022950D01*
X0113491Y0023200D01*
X0113018Y0022950D02*
X0112018Y0023951D01*
X0112018Y0024201D01*
X0112268Y0024451D01*
X0112768Y0024451D01*
X0113018Y0024201D01*
X0113491Y0024201D02*
X0113741Y0024451D01*
X0114241Y0024451D01*
X0113018Y0022950D02*
X0112018Y0022950D01*
X0109241Y0054200D02*
X0108741Y0054200D01*
X0108491Y0054450D01*
X0108018Y0054951D02*
X0107018Y0054951D01*
X0107268Y0055701D02*
X0108018Y0054951D01*
X0108491Y0055451D02*
X0108741Y0055701D01*
X0109241Y0055701D01*
X0109492Y0055451D01*
X0109492Y0054450D01*
X0109241Y0054200D01*
X0107268Y0054200D02*
X0107268Y0055701D01*
X0102491Y0062200D02*
X0101991Y0062200D01*
X0101741Y0062450D01*
X0101741Y0063701D01*
X0101268Y0063451D02*
X0101018Y0063701D01*
X0100518Y0063701D01*
X0100268Y0063451D01*
X0100268Y0063201D01*
X0101268Y0062200D01*
X0100268Y0062200D01*
X0102491Y0062200D02*
X0102742Y0062450D01*
X0102742Y0063701D01*
X0120645Y0063774D02*
X0120645Y0063273D01*
X0120895Y0063023D01*
X0120645Y0062551D02*
X0121146Y0062050D01*
X0121146Y0062301D02*
X0121146Y0061550D01*
X0120645Y0061550D02*
X0122146Y0061550D01*
X0122146Y0062301D01*
X0121896Y0062551D01*
X0121396Y0062551D01*
X0121146Y0062301D01*
X0121896Y0063023D02*
X0122146Y0063273D01*
X0122146Y0063774D01*
X0121896Y0064024D01*
X0121646Y0064024D01*
X0121396Y0063774D01*
X0121146Y0064024D01*
X0120895Y0064024D01*
X0120645Y0063774D01*
X0121396Y0063774D02*
X0121396Y0063524D01*
X0101045Y0083300D02*
X0100795Y0083050D01*
X0100295Y0083050D01*
X0100044Y0083300D01*
X0099572Y0083300D02*
X0099322Y0083050D01*
X0098821Y0083050D01*
X0098571Y0083300D01*
X0098571Y0083550D01*
X0098821Y0083801D01*
X0099071Y0083801D01*
X0098821Y0083801D02*
X0098571Y0084051D01*
X0098571Y0084301D01*
X0098821Y0084551D01*
X0099322Y0084551D01*
X0099572Y0084301D01*
X0100044Y0084301D02*
X0100295Y0084551D01*
X0100795Y0084551D01*
X0101045Y0084301D01*
X0101045Y0083300D01*
X0113821Y0085737D02*
X0114071Y0085487D01*
X0114572Y0085487D01*
X0114822Y0085737D01*
X0114822Y0085987D01*
X0114572Y0086238D01*
X0114071Y0086238D01*
X0113821Y0085987D01*
X0113821Y0085737D01*
X0114071Y0086238D02*
X0113821Y0086488D01*
X0113821Y0086738D01*
X0114071Y0086988D01*
X0114572Y0086988D01*
X0114822Y0086738D01*
X0114822Y0086488D01*
X0114572Y0086238D01*
X0115294Y0086738D02*
X0115545Y0086988D01*
X0116045Y0086988D01*
X0116295Y0086738D01*
X0116295Y0085737D01*
X0116045Y0085487D01*
X0115545Y0085487D01*
X0115294Y0085737D01*
X0119295Y0088354D02*
X0119295Y0088854D01*
X0119545Y0089104D01*
X0119545Y0089577D02*
X0119295Y0089827D01*
X0119295Y0090327D01*
X0119545Y0090578D01*
X0119796Y0090578D01*
X0120046Y0090327D01*
X0120046Y0089577D01*
X0119545Y0089577D01*
X0120046Y0089577D02*
X0120546Y0090077D01*
X0120796Y0090578D01*
X0120546Y0089104D02*
X0120796Y0088854D01*
X0120796Y0088354D01*
X0120546Y0088103D01*
X0119545Y0088103D01*
X0119295Y0088354D01*
X0129045Y0090880D02*
X0129045Y0091381D01*
X0129295Y0091631D01*
X0129045Y0092103D02*
X0129045Y0093104D01*
X0129045Y0093577D02*
X0130046Y0094578D01*
X0130296Y0094578D01*
X0130546Y0094327D01*
X0130546Y0093827D01*
X0130296Y0093577D01*
X0130546Y0092604D02*
X0129045Y0092604D01*
X0129045Y0093577D02*
X0129045Y0094578D01*
X0130546Y0092604D02*
X0130046Y0092103D01*
X0130296Y0091631D02*
X0130546Y0091381D01*
X0130546Y0090880D01*
X0130296Y0090630D01*
X0129295Y0090630D01*
X0129045Y0090880D01*
X0143045Y0102880D02*
X0144546Y0102880D01*
X0144546Y0103631D01*
X0144296Y0103881D01*
X0143796Y0103881D01*
X0143546Y0103631D01*
X0143546Y0102880D01*
X0143546Y0103381D02*
X0143045Y0103881D01*
X0143045Y0104353D02*
X0143045Y0105354D01*
X0143045Y0104854D02*
X0144546Y0104854D01*
X0144046Y0104353D01*
X0144296Y0105827D02*
X0144546Y0106077D01*
X0144546Y0106577D01*
X0144296Y0106828D01*
X0143295Y0105827D01*
X0143045Y0106077D01*
X0143045Y0106577D01*
X0143295Y0106828D01*
X0144296Y0106828D01*
X0144296Y0105827D02*
X0143295Y0105827D01*
X0157045Y0091828D02*
X0156795Y0091577D01*
X0156795Y0091077D01*
X0157045Y0090827D01*
X0156795Y0090354D02*
X0156795Y0089353D01*
X0156795Y0089854D02*
X0158296Y0089854D01*
X0157796Y0089353D01*
X0158046Y0088881D02*
X0158296Y0088631D01*
X0158296Y0088130D01*
X0158046Y0087880D01*
X0157045Y0087880D01*
X0156795Y0088130D01*
X0156795Y0088631D01*
X0157045Y0088881D01*
X0158046Y0090827D02*
X0158296Y0091077D01*
X0158296Y0091577D01*
X0158046Y0091828D01*
X0157796Y0091828D01*
X0157546Y0091577D01*
X0157296Y0091828D01*
X0157045Y0091828D01*
X0157546Y0091577D02*
X0157546Y0091327D01*
X0154646Y0087774D02*
X0154396Y0087274D01*
X0153896Y0086773D01*
X0153896Y0087524D01*
X0153646Y0087774D01*
X0153395Y0087774D01*
X0153145Y0087524D01*
X0153145Y0087023D01*
X0153395Y0086773D01*
X0153896Y0086773D01*
X0153896Y0086301D02*
X0153646Y0086051D01*
X0153646Y0085300D01*
X0153646Y0085800D02*
X0153145Y0086301D01*
X0153896Y0086301D02*
X0154396Y0086301D01*
X0154646Y0086051D01*
X0154646Y0085300D01*
X0153145Y0085300D01*
X0154821Y0080801D02*
X0154821Y0080551D01*
X0155822Y0079550D01*
X0155822Y0079300D01*
X0156294Y0079300D02*
X0156795Y0079800D01*
X0156545Y0079800D02*
X0157295Y0079800D01*
X0157295Y0079300D02*
X0157295Y0080801D01*
X0156545Y0080801D01*
X0156294Y0080551D01*
X0156294Y0080051D01*
X0156545Y0079800D01*
X0155822Y0080801D02*
X0154821Y0080801D01*
X0159730Y0071951D02*
X0160664Y0071951D01*
X0160664Y0071251D01*
X0160197Y0071484D01*
X0159963Y0071484D01*
X0159730Y0071251D01*
X0159730Y0070784D01*
X0159963Y0070550D01*
X0160430Y0070550D01*
X0160664Y0070784D01*
X0161111Y0070784D02*
X0161111Y0071951D01*
X0162045Y0071951D02*
X0162045Y0070784D01*
X0161812Y0070550D01*
X0161345Y0070550D01*
X0161111Y0070784D01*
X0170645Y0060247D02*
X0172146Y0060247D01*
X0171396Y0059497D01*
X0171396Y0060497D01*
X0170645Y0059024D02*
X0170645Y0058023D01*
X0170645Y0058524D02*
X0172146Y0058524D01*
X0171646Y0058023D01*
X0171896Y0057551D02*
X0172146Y0057301D01*
X0172146Y0056800D01*
X0171896Y0056550D01*
X0170895Y0056550D01*
X0170645Y0056800D01*
X0170645Y0057301D01*
X0170895Y0057551D01*
X0155546Y0048828D02*
X0155546Y0047827D01*
X0154796Y0047827D01*
X0155046Y0048327D01*
X0155046Y0048577D01*
X0154796Y0048828D01*
X0154295Y0048828D01*
X0154045Y0048577D01*
X0154045Y0048077D01*
X0154295Y0047827D01*
X0154045Y0047354D02*
X0154045Y0046353D01*
X0154045Y0046854D02*
X0155546Y0046854D01*
X0155046Y0046353D01*
X0155296Y0045881D02*
X0155546Y0045631D01*
X0155546Y0045130D01*
X0155296Y0044880D01*
X0154295Y0044880D01*
X0154045Y0045130D01*
X0154045Y0045631D01*
X0154295Y0045881D01*
X0159645Y0027774D02*
X0159395Y0027524D01*
X0159395Y0027023D01*
X0159645Y0026773D01*
X0159896Y0026773D01*
X0160146Y0027023D01*
X0160146Y0027524D01*
X0159896Y0027774D01*
X0159645Y0027774D01*
X0160146Y0027524D02*
X0160396Y0027774D01*
X0160646Y0027774D01*
X0160896Y0027524D01*
X0160896Y0027023D01*
X0160646Y0026773D01*
X0160396Y0026773D01*
X0160146Y0027023D01*
X0160146Y0026301D02*
X0159896Y0026051D01*
X0159896Y0025300D01*
X0159896Y0025800D02*
X0159395Y0026301D01*
X0160146Y0026301D02*
X0160646Y0026301D01*
X0160896Y0026051D01*
X0160896Y0025300D01*
X0159395Y0025300D01*
X0172395Y0024524D02*
X0172395Y0024023D01*
X0172645Y0023773D01*
X0172395Y0023301D02*
X0172896Y0022800D01*
X0172896Y0023051D02*
X0172896Y0022300D01*
X0172395Y0022300D02*
X0173896Y0022300D01*
X0173896Y0023051D01*
X0173646Y0023301D01*
X0173146Y0023301D01*
X0172896Y0023051D01*
X0173396Y0023773D02*
X0173146Y0024023D01*
X0173146Y0024774D01*
X0173646Y0024774D02*
X0172645Y0024774D01*
X0172395Y0024524D01*
X0173396Y0023773D02*
X0173646Y0023773D01*
X0173896Y0024023D01*
X0173896Y0024524D01*
X0173646Y0024774D01*
X0145152Y0069824D02*
X0143651Y0069824D01*
X0143651Y0070824D01*
X0143651Y0071297D02*
X0143651Y0072298D01*
X0143651Y0071797D02*
X0145152Y0071797D01*
X0144652Y0071297D01*
X0175645Y0101550D02*
X0177146Y0101550D01*
X0177146Y0102301D01*
X0176896Y0102551D01*
X0176396Y0102551D01*
X0176146Y0102301D01*
X0176146Y0101550D01*
X0176146Y0102050D02*
X0175645Y0102551D01*
X0175895Y0103023D02*
X0175645Y0103273D01*
X0175645Y0103774D01*
X0175895Y0104024D01*
X0176396Y0104024D01*
X0176646Y0103774D01*
X0176646Y0103524D01*
X0176396Y0103023D01*
X0177146Y0103023D01*
X0177146Y0104024D01*
X0170146Y0114550D02*
X0168895Y0114550D01*
X0168645Y0114800D01*
X0168645Y0115301D01*
X0168895Y0115551D01*
X0170146Y0115551D01*
X0169396Y0116023D02*
X0169396Y0117024D01*
X0170146Y0116774D02*
X0169396Y0116023D01*
X0170146Y0116774D02*
X0168645Y0116774D01*
X0147295Y0127050D02*
X0147045Y0126800D01*
X0146545Y0126800D01*
X0146294Y0127050D01*
X0145822Y0126800D02*
X0144821Y0126800D01*
X0144349Y0126800D02*
X0143348Y0126800D01*
X0143848Y0126800D02*
X0143848Y0128301D01*
X0144349Y0127801D01*
X0145321Y0128301D02*
X0145321Y0126800D01*
X0145822Y0127801D02*
X0145321Y0128301D01*
X0146294Y0128051D02*
X0146545Y0128301D01*
X0147045Y0128301D01*
X0147295Y0128051D01*
X0147295Y0127050D01*
X0125896Y0110274D02*
X0125646Y0110274D01*
X0124645Y0109273D01*
X0124395Y0109273D01*
X0124645Y0108801D02*
X0124395Y0108551D01*
X0124395Y0108050D01*
X0124645Y0107800D01*
X0125646Y0107800D01*
X0125896Y0108050D01*
X0125896Y0108551D01*
X0125646Y0108801D01*
X0125896Y0109273D02*
X0125896Y0110274D01*
X0106795Y0103801D02*
X0106795Y0102550D01*
X0106545Y0102300D01*
X0106045Y0102300D01*
X0105794Y0102550D01*
X0105794Y0103801D01*
X0105322Y0103551D02*
X0105072Y0103801D01*
X0104571Y0103801D01*
X0104321Y0103551D01*
X0104321Y0103301D01*
X0104571Y0103051D01*
X0104321Y0102800D01*
X0104321Y0102550D01*
X0104571Y0102300D01*
X0105072Y0102300D01*
X0105322Y0102550D01*
X0104821Y0103051D02*
X0104571Y0103051D01*
X0085796Y0098827D02*
X0084295Y0098827D01*
X0084295Y0098327D02*
X0084295Y0099328D01*
X0085296Y0098327D02*
X0085796Y0098827D01*
X0085546Y0097854D02*
X0085046Y0097854D01*
X0084796Y0097604D01*
X0084796Y0096853D01*
X0084295Y0096853D02*
X0085796Y0096853D01*
X0085796Y0097604D01*
X0085546Y0097854D01*
X0084796Y0097354D02*
X0084295Y0097854D01*
X0075796Y0099353D02*
X0075796Y0100104D01*
X0075546Y0100354D01*
X0075046Y0100354D01*
X0074796Y0100104D01*
X0074796Y0099353D01*
X0074295Y0099353D02*
X0075796Y0099353D01*
X0074796Y0099854D02*
X0074295Y0100354D01*
X0074295Y0100827D02*
X0075296Y0101828D01*
X0075546Y0101828D01*
X0075796Y0101577D01*
X0075796Y0101077D01*
X0075546Y0100827D01*
X0074295Y0100827D02*
X0074295Y0101828D01*
X0074018Y0065764D02*
X0074018Y0065014D01*
X0073518Y0065264D01*
X0073268Y0065264D01*
X0073018Y0065014D01*
X0073018Y0064513D01*
X0073268Y0064263D01*
X0073768Y0064263D01*
X0074018Y0064513D01*
X0074491Y0064513D02*
X0074741Y0064263D01*
X0075241Y0064263D01*
X0075492Y0064513D01*
X0075492Y0065514D01*
X0075241Y0065764D01*
X0074741Y0065764D01*
X0074491Y0065514D01*
X0074018Y0065764D02*
X0073018Y0065764D01*
D12*
X0072753Y0066526D02*
X0078658Y0066526D01*
X0072753Y0066526D02*
X0072753Y0075974D01*
X0078658Y0075974D01*
X0086532Y0075974D02*
X0090863Y0075974D01*
X0092438Y0074400D01*
X0092438Y0068100D01*
X0090863Y0066526D01*
X0086532Y0066526D01*
X0098077Y0087776D02*
X0096503Y0089350D01*
X0096503Y0095650D01*
X0098077Y0097224D01*
X0102408Y0097224D01*
X0110282Y0097224D02*
X0116188Y0097224D01*
X0116188Y0087776D01*
X0110282Y0087776D01*
X0102408Y0087776D02*
X0098077Y0087776D01*
X0101503Y0105344D02*
X0101503Y0108494D01*
X0107014Y0111250D02*
X0107016Y0111289D01*
X0107022Y0111328D01*
X0107032Y0111366D01*
X0107045Y0111403D01*
X0107062Y0111438D01*
X0107082Y0111472D01*
X0107106Y0111503D01*
X0107133Y0111532D01*
X0107162Y0111558D01*
X0107194Y0111581D01*
X0107228Y0111601D01*
X0107264Y0111617D01*
X0107301Y0111629D01*
X0107340Y0111638D01*
X0107379Y0111643D01*
X0107418Y0111644D01*
X0107457Y0111641D01*
X0107496Y0111634D01*
X0107533Y0111623D01*
X0107570Y0111609D01*
X0107605Y0111591D01*
X0107638Y0111570D01*
X0107669Y0111545D01*
X0107697Y0111518D01*
X0107722Y0111488D01*
X0107744Y0111455D01*
X0107763Y0111421D01*
X0107778Y0111385D01*
X0107790Y0111347D01*
X0107798Y0111309D01*
X0107802Y0111270D01*
X0107802Y0111230D01*
X0107798Y0111191D01*
X0107790Y0111153D01*
X0107778Y0111115D01*
X0107763Y0111079D01*
X0107744Y0111045D01*
X0107722Y0111012D01*
X0107697Y0110982D01*
X0107669Y0110955D01*
X0107638Y0110930D01*
X0107605Y0110909D01*
X0107570Y0110891D01*
X0107533Y0110877D01*
X0107496Y0110866D01*
X0107457Y0110859D01*
X0107418Y0110856D01*
X0107379Y0110857D01*
X0107340Y0110862D01*
X0107301Y0110871D01*
X0107264Y0110883D01*
X0107228Y0110899D01*
X0107194Y0110919D01*
X0107162Y0110942D01*
X0107133Y0110968D01*
X0107106Y0110997D01*
X0107082Y0111028D01*
X0107062Y0111062D01*
X0107045Y0111097D01*
X0107032Y0111134D01*
X0107022Y0111172D01*
X0107016Y0111211D01*
X0107014Y0111250D01*
X0101503Y0114006D02*
X0101503Y0117156D01*
X0121188Y0117156D02*
X0121188Y0114006D01*
X0121188Y0108494D02*
X0121188Y0105344D01*
X0158405Y0107500D02*
X0161786Y0107500D01*
X0162886Y0111443D02*
X0162886Y0113557D01*
X0161786Y0117500D02*
X0158405Y0117500D01*
X0161595Y0068400D02*
X0161595Y0065800D01*
X0161001Y0056594D02*
X0161985Y0055610D01*
X0148595Y0056700D02*
X0148595Y0059300D01*
X0144751Y0061388D02*
X0144751Y0066112D01*
X0142388Y0068474D01*
X0135302Y0068474D02*
X0133436Y0066420D01*
X0133353Y0066327D01*
X0133273Y0066232D01*
X0133195Y0066133D01*
X0133121Y0066033D01*
X0133051Y0065930D01*
X0132983Y0065825D01*
X0132919Y0065718D01*
X0132858Y0065609D01*
X0132801Y0065498D01*
X0132748Y0065385D01*
X0132697Y0065270D01*
X0132651Y0065155D01*
X0132608Y0065037D01*
X0132569Y0064919D01*
X0132534Y0064799D01*
X0132503Y0064678D01*
X0132475Y0064556D01*
X0132452Y0064433D01*
X0132432Y0064310D01*
X0132416Y0064186D01*
X0132404Y0064062D01*
X0132396Y0063937D01*
X0132392Y0063812D01*
X0132392Y0063688D01*
X0132396Y0063563D01*
X0132404Y0063438D01*
X0132416Y0063314D01*
X0132432Y0063190D01*
X0132452Y0063067D01*
X0132475Y0062944D01*
X0132503Y0062822D01*
X0132534Y0062701D01*
X0132569Y0062581D01*
X0132608Y0062463D01*
X0132651Y0062345D01*
X0132697Y0062230D01*
X0132748Y0062115D01*
X0132801Y0062002D01*
X0132858Y0061891D01*
X0132919Y0061782D01*
X0132983Y0061675D01*
X0133051Y0061570D01*
X0133121Y0061467D01*
X0133195Y0061367D01*
X0133273Y0061268D01*
X0133353Y0061173D01*
X0133436Y0061080D01*
X0135302Y0059026D01*
X0142388Y0059026D02*
X0144751Y0061388D01*
X0148595Y0065800D02*
X0148595Y0068400D01*
X0125607Y0046644D02*
X0125607Y0043494D01*
X0123245Y0043494D01*
X0125636Y0039055D02*
X0125636Y0020945D01*
X0127408Y0020945D01*
X0127408Y0026063D02*
X0135282Y0026063D01*
X0135282Y0020945D02*
X0137054Y0020945D01*
X0137054Y0039055D01*
X0135282Y0039055D01*
X0127408Y0039055D02*
X0125636Y0039055D01*
X0116946Y0043494D02*
X0114583Y0043494D01*
X0114583Y0046644D01*
X0065280Y0040750D02*
X0065282Y0040797D01*
X0065288Y0040844D01*
X0065298Y0040891D01*
X0065311Y0040936D01*
X0065329Y0040980D01*
X0065350Y0041022D01*
X0065374Y0041063D01*
X0065402Y0041101D01*
X0065433Y0041137D01*
X0065467Y0041170D01*
X0065503Y0041200D01*
X0065542Y0041227D01*
X0065583Y0041251D01*
X0065626Y0041271D01*
X0065670Y0041287D01*
X0065716Y0041300D01*
X0065762Y0041309D01*
X0065810Y0041314D01*
X0065857Y0041315D01*
X0065904Y0041312D01*
X0065951Y0041305D01*
X0065997Y0041294D01*
X0066042Y0041280D01*
X0066086Y0041261D01*
X0066127Y0041239D01*
X0066167Y0041214D01*
X0066205Y0041185D01*
X0066240Y0041154D01*
X0066273Y0041119D01*
X0066302Y0041082D01*
X0066328Y0041043D01*
X0066351Y0041001D01*
X0066370Y0040958D01*
X0066386Y0040913D01*
X0066398Y0040867D01*
X0066406Y0040821D01*
X0066410Y0040774D01*
X0066410Y0040726D01*
X0066406Y0040679D01*
X0066398Y0040633D01*
X0066386Y0040587D01*
X0066370Y0040542D01*
X0066351Y0040499D01*
X0066328Y0040457D01*
X0066302Y0040418D01*
X0066273Y0040381D01*
X0066240Y0040346D01*
X0066205Y0040315D01*
X0066167Y0040286D01*
X0066128Y0040261D01*
X0066086Y0040239D01*
X0066042Y0040220D01*
X0065997Y0040206D01*
X0065951Y0040195D01*
X0065904Y0040188D01*
X0065857Y0040185D01*
X0065810Y0040186D01*
X0065762Y0040191D01*
X0065716Y0040200D01*
X0065670Y0040213D01*
X0065626Y0040229D01*
X0065583Y0040249D01*
X0065542Y0040273D01*
X0065503Y0040300D01*
X0065467Y0040330D01*
X0065433Y0040363D01*
X0065402Y0040399D01*
X0065374Y0040437D01*
X0065350Y0040478D01*
X0065329Y0040520D01*
X0065311Y0040564D01*
X0065298Y0040609D01*
X0065288Y0040656D01*
X0065282Y0040703D01*
X0065280Y0040750D01*
D13*
X0066747Y0041951D02*
X0080944Y0041951D01*
X0080944Y0060549D02*
X0066747Y0060549D01*
X0156483Y0047431D02*
X0156483Y0045069D01*
X0161207Y0045069D02*
X0161207Y0047431D01*
D14*
X0167475Y0060000D02*
X0167715Y0060000D01*
X0161465Y0088750D02*
X0161225Y0088750D01*
X0128965Y0111250D02*
X0128725Y0111250D01*
X0143845Y0123630D02*
X0143845Y0123870D01*
X0123965Y0092500D02*
X0123725Y0092500D01*
X0097595Y0080120D02*
X0097595Y0079880D01*
X0105095Y0051370D02*
X0105095Y0051130D01*
X0115095Y0027620D02*
X0115095Y0027380D01*
X0078845Y0034880D02*
X0078845Y0035120D01*
D15*
X0125095Y0060000D03*
X0150095Y0088750D03*
X0147595Y0103750D03*
X0172595Y0105000D03*
X0156345Y0028750D03*
X0169345Y0025750D03*
X0088845Y0096250D03*
X0078845Y0098750D03*
D16*
X0107595Y0037500D03*
X0153845Y0076250D03*
D17*
X0114121Y0074026D02*
X0114121Y0071073D01*
X0114121Y0066939D02*
X0114121Y0058474D01*
X0098570Y0058474D02*
X0098570Y0064970D01*
X0098570Y0069104D02*
X0098570Y0074026D01*
M02*
