G75*
%MOIN*%
%OFA0B0*%
%FSLAX25Y25*%
%IPPOS*%
%LPD*%
%AMOC8*
5,1,8,0,0,1.08239X$1,22.5*
%
%ADD10R,0.03200X0.13200*%
%ADD11C,0.06600*%
%ADD12R,0.04331X0.03937*%
%ADD13C,0.07400*%
%ADD14R,0.05512X0.01378*%
%ADD15R,0.07480X0.07087*%
%ADD16R,0.07480X0.07480*%
%ADD17R,0.03937X0.04331*%
%ADD18R,0.03937X0.18110*%
%ADD19R,0.06299X0.13386*%
%ADD20C,0.01181*%
%ADD21C,0.01000*%
%ADD22C,0.04000*%
%ADD23C,0.03000*%
%ADD24C,0.00800*%
D10*
X0060095Y0070000D03*
X0065095Y0070000D03*
X0070095Y0070000D03*
X0075095Y0070000D03*
X0080095Y0070000D03*
X0085095Y0070000D03*
X0090095Y0070000D03*
X0095095Y0070000D03*
X0100095Y0070000D03*
X0105095Y0070000D03*
X0110095Y0070000D03*
X0110095Y0120000D03*
X0105095Y0120000D03*
X0100095Y0120000D03*
X0095095Y0120000D03*
X0090095Y0120000D03*
X0085095Y0120000D03*
X0080095Y0120000D03*
X0075095Y0120000D03*
D11*
X0147791Y0047501D03*
X0140942Y0044337D03*
D12*
X0069692Y0057500D03*
X0062999Y0057500D03*
D13*
X0063595Y0021000D03*
X0073595Y0021000D03*
X0083595Y0021000D03*
X0093595Y0021000D03*
X0103595Y0021000D03*
D14*
X0164527Y0102222D03*
X0164527Y0104781D03*
X0164527Y0107340D03*
X0164527Y0109899D03*
X0164527Y0112458D03*
D15*
X0174960Y0123088D03*
X0174960Y0091592D03*
D16*
X0174960Y0102340D03*
X0174960Y0112340D03*
D17*
X0157595Y0095846D03*
X0157595Y0089154D03*
D18*
X0141462Y0101893D03*
X0133588Y0101893D03*
D19*
X0124139Y0122366D03*
X0150911Y0122366D03*
D20*
X0121473Y0094831D02*
X0118717Y0094831D01*
X0121473Y0094831D02*
X0121473Y0092075D01*
X0118717Y0092075D01*
X0118717Y0094831D01*
X0118717Y0093255D02*
X0121473Y0093255D01*
X0121473Y0094435D02*
X0118717Y0094435D01*
X0118717Y0087925D02*
X0121473Y0087925D01*
X0121473Y0085169D01*
X0118717Y0085169D01*
X0118717Y0087925D01*
X0118717Y0086349D02*
X0121473Y0086349D01*
X0121473Y0087529D02*
X0118717Y0087529D01*
D21*
X0055095Y0080000D02*
X0055095Y0038677D01*
X0069850Y0053431D01*
X0066656Y0053431D01*
X0065877Y0054211D01*
X0065743Y0054134D01*
X0065362Y0054031D01*
X0063483Y0054031D01*
X0063483Y0057016D01*
X0062514Y0057016D01*
X0059333Y0057016D01*
X0059333Y0055334D01*
X0059436Y0054953D01*
X0059633Y0054610D01*
X0059912Y0054331D01*
X0060254Y0054134D01*
X0060636Y0054031D01*
X0062514Y0054031D01*
X0062514Y0057016D01*
X0062514Y0057984D01*
X0059333Y0057984D01*
X0059333Y0059666D01*
X0059436Y0060047D01*
X0059633Y0060390D01*
X0059912Y0060669D01*
X0060254Y0060866D01*
X0060636Y0060968D01*
X0062514Y0060968D01*
X0062514Y0057984D01*
X0063483Y0057984D01*
X0063483Y0060968D01*
X0065362Y0060968D01*
X0065743Y0060866D01*
X0065877Y0060789D01*
X0066656Y0061568D01*
X0067357Y0061568D01*
X0066997Y0061928D01*
X0066893Y0061900D01*
X0065395Y0061900D01*
X0065395Y0069700D01*
X0064795Y0069700D01*
X0061995Y0069700D01*
X0060395Y0069700D01*
X0060395Y0061900D01*
X0061893Y0061900D01*
X0062274Y0062002D01*
X0062595Y0062188D01*
X0062916Y0062002D01*
X0063298Y0061900D01*
X0064795Y0061900D01*
X0064795Y0069700D01*
X0064795Y0070300D01*
X0060395Y0070300D01*
X0059795Y0070300D01*
X0059795Y0069700D01*
X0056995Y0069700D01*
X0056995Y0063203D01*
X0057097Y0062821D01*
X0057295Y0062479D01*
X0057574Y0062200D01*
X0057916Y0062002D01*
X0058298Y0061900D01*
X0059795Y0061900D01*
X0059795Y0069700D01*
X0060395Y0069700D01*
X0060395Y0070300D01*
X0060395Y0078100D01*
X0061893Y0078100D01*
X0062274Y0077998D01*
X0062595Y0077812D01*
X0062916Y0077998D01*
X0063298Y0078100D01*
X0064795Y0078100D01*
X0064795Y0070300D01*
X0065395Y0070300D01*
X0065395Y0078100D01*
X0066893Y0078100D01*
X0066997Y0078072D01*
X0067625Y0078700D01*
X0072565Y0078700D01*
X0073193Y0078072D01*
X0073298Y0078100D01*
X0074795Y0078100D01*
X0074795Y0070300D01*
X0075395Y0070300D01*
X0075395Y0078100D01*
X0076893Y0078100D01*
X0076997Y0078072D01*
X0077495Y0078570D01*
X0077495Y0079302D01*
X0076619Y0080178D01*
X0075995Y0081684D01*
X0075995Y0083316D01*
X0076619Y0084822D01*
X0077773Y0085976D01*
X0079280Y0086600D01*
X0080911Y0086600D01*
X0082418Y0085976D01*
X0083571Y0084822D01*
X0084195Y0083316D01*
X0084195Y0081684D01*
X0083571Y0080178D01*
X0082695Y0079302D01*
X0082695Y0078700D01*
X0087565Y0078700D01*
X0087595Y0078670D01*
X0087625Y0078700D01*
X0092565Y0078700D01*
X0092595Y0078670D01*
X0092625Y0078700D01*
X0097565Y0078700D01*
X0097595Y0078670D01*
X0097625Y0078700D01*
X0102565Y0078700D01*
X0103193Y0078072D01*
X0103298Y0078100D01*
X0103318Y0078100D01*
X0088622Y0092796D01*
X0087891Y0093527D01*
X0077372Y0104046D01*
X0076641Y0104777D01*
X0076373Y0105424D01*
X0075369Y0106428D01*
X0074745Y0107934D01*
X0074745Y0109566D01*
X0075369Y0111072D01*
X0076197Y0111900D01*
X0075395Y0111900D01*
X0075395Y0119700D01*
X0074795Y0119700D01*
X0071995Y0119700D01*
X0071995Y0113203D01*
X0072097Y0112821D01*
X0072295Y0112479D01*
X0072574Y0112200D01*
X0072916Y0112002D01*
X0073298Y0111900D01*
X0074795Y0111900D01*
X0074795Y0119700D01*
X0074795Y0120300D01*
X0071995Y0120300D01*
X0071995Y0126797D01*
X0072097Y0127179D01*
X0072295Y0127521D01*
X0072574Y0127800D01*
X0072916Y0127998D01*
X0073298Y0128100D01*
X0074795Y0128100D01*
X0074795Y0120300D01*
X0075395Y0120300D01*
X0075395Y0128100D01*
X0076893Y0128100D01*
X0076997Y0128072D01*
X0077625Y0128700D01*
X0082565Y0128700D01*
X0082595Y0128670D01*
X0082625Y0128700D01*
X0087565Y0128700D01*
X0087595Y0128670D01*
X0087625Y0128700D01*
X0092565Y0128700D01*
X0092595Y0128670D01*
X0092625Y0128700D01*
X0097565Y0128700D01*
X0097595Y0128670D01*
X0097625Y0128700D01*
X0102565Y0128700D01*
X0103193Y0128072D01*
X0103298Y0128100D01*
X0104795Y0128100D01*
X0104795Y0120300D01*
X0105395Y0120300D01*
X0105395Y0128100D01*
X0106893Y0128100D01*
X0107274Y0127998D01*
X0107595Y0127812D01*
X0107916Y0127998D01*
X0108298Y0128100D01*
X0109795Y0128100D01*
X0109795Y0120300D01*
X0109795Y0119700D01*
X0105395Y0119700D01*
X0105395Y0120300D01*
X0108195Y0120300D01*
X0109795Y0120300D01*
X0110395Y0120300D01*
X0110395Y0128100D01*
X0111893Y0128100D01*
X0112274Y0127998D01*
X0112616Y0127800D01*
X0112895Y0127521D01*
X0113093Y0127179D01*
X0113195Y0126797D01*
X0113195Y0120300D01*
X0110395Y0120300D01*
X0110395Y0119700D01*
X0113195Y0119700D01*
X0113195Y0113203D01*
X0113093Y0112821D01*
X0112895Y0112479D01*
X0112616Y0112200D01*
X0112274Y0112002D01*
X0111893Y0111900D01*
X0111872Y0111900D01*
X0118422Y0105350D01*
X0119661Y0105350D01*
X0121168Y0104726D01*
X0122321Y0103572D01*
X0122945Y0102066D01*
X0122945Y0100434D01*
X0122321Y0098928D01*
X0121168Y0097774D01*
X0120557Y0097521D01*
X0122008Y0097521D01*
X0122997Y0097112D01*
X0123754Y0096355D01*
X0123921Y0095953D01*
X0125884Y0095953D01*
X0126125Y0096053D01*
X0127160Y0096053D01*
X0128115Y0095657D01*
X0130120Y0093652D01*
X0130120Y0101409D01*
X0133104Y0101409D01*
X0133104Y0102377D01*
X0130120Y0102377D01*
X0130120Y0111146D01*
X0130222Y0111527D01*
X0130419Y0111869D01*
X0130699Y0112148D01*
X0131041Y0112346D01*
X0131422Y0112448D01*
X0133104Y0112448D01*
X0133104Y0102377D01*
X0134072Y0102377D01*
X0134072Y0112236D01*
X0132773Y0112774D01*
X0131619Y0113928D01*
X0130995Y0115434D01*
X0130995Y0117066D01*
X0131619Y0118572D01*
X0132773Y0119726D01*
X0134280Y0120350D01*
X0135911Y0120350D01*
X0137418Y0119726D01*
X0138293Y0118850D01*
X0139362Y0118850D01*
X0140318Y0118454D01*
X0141049Y0117723D01*
X0143666Y0115106D01*
X0144062Y0114150D01*
X0144062Y0113048D01*
X0144300Y0113048D01*
X0145531Y0111818D01*
X0145531Y0092862D01*
X0150391Y0097723D01*
X0151122Y0098454D01*
X0152078Y0098850D01*
X0153527Y0098850D01*
X0153527Y0098882D01*
X0153995Y0099350D01*
X0153995Y0099416D01*
X0153953Y0099541D01*
X0153995Y0100128D01*
X0153995Y0100716D01*
X0154046Y0100838D01*
X0154055Y0100969D01*
X0154318Y0101496D01*
X0154543Y0102039D01*
X0154636Y0102132D01*
X0155245Y0103350D01*
X0155245Y0113887D01*
X0154930Y0113573D01*
X0146891Y0113573D01*
X0145661Y0114803D01*
X0145661Y0129375D01*
X0129389Y0129375D01*
X0129389Y0114803D01*
X0128159Y0113573D01*
X0120120Y0113573D01*
X0118890Y0114803D01*
X0118890Y0129375D01*
X0069618Y0129375D01*
X0070095Y0080000D01*
X0055095Y0080000D01*
X0055095Y0079888D02*
X0076909Y0079888D01*
X0076326Y0080887D02*
X0070087Y0080887D01*
X0070077Y0081885D02*
X0075995Y0081885D01*
X0075995Y0082884D02*
X0070067Y0082884D01*
X0070058Y0083882D02*
X0076230Y0083882D01*
X0076678Y0084881D02*
X0070048Y0084881D01*
X0070038Y0085879D02*
X0077676Y0085879D01*
X0080095Y0082500D02*
X0080095Y0070000D01*
X0080095Y0060000D01*
X0076345Y0056250D01*
X0056595Y0036500D01*
X0056595Y0017000D01*
X0060095Y0013500D01*
X0102095Y0013500D01*
X0103595Y0015000D01*
X0103595Y0021000D01*
X0107780Y0016982D02*
X0178220Y0016982D01*
X0178220Y0015984D02*
X0106641Y0015984D01*
X0106881Y0016083D02*
X0106195Y0015799D01*
X0106195Y0014483D01*
X0105799Y0013527D01*
X0105397Y0013125D01*
X0178220Y0013125D01*
X0178220Y0086549D01*
X0175460Y0086549D01*
X0175460Y0091092D01*
X0174460Y0091092D01*
X0169720Y0091092D01*
X0169720Y0087851D01*
X0169801Y0087548D01*
X0169023Y0087226D01*
X0167869Y0086072D01*
X0167467Y0085100D01*
X0145122Y0085100D01*
X0153527Y0093505D01*
X0153527Y0092811D01*
X0154306Y0092032D01*
X0154229Y0091898D01*
X0154127Y0091516D01*
X0154127Y0089638D01*
X0157111Y0089638D01*
X0157111Y0088669D01*
X0158079Y0088669D01*
X0158079Y0085488D01*
X0159761Y0085488D01*
X0160143Y0085590D01*
X0160485Y0085788D01*
X0160764Y0086067D01*
X0160961Y0086409D01*
X0161064Y0086791D01*
X0161064Y0088669D01*
X0158079Y0088669D01*
X0158079Y0089638D01*
X0161064Y0089638D01*
X0161064Y0091516D01*
X0160961Y0091898D01*
X0160884Y0092032D01*
X0161664Y0092811D01*
X0161664Y0098882D01*
X0161401Y0099144D01*
X0162098Y0099433D01*
X0168153Y0099433D01*
X0169120Y0100400D01*
X0169120Y0097730D01*
X0170350Y0096500D01*
X0170584Y0096500D01*
X0170299Y0096336D01*
X0170020Y0096056D01*
X0169822Y0095714D01*
X0169720Y0095333D01*
X0169720Y0092092D01*
X0174460Y0092092D01*
X0174460Y0091092D01*
X0174460Y0086549D01*
X0174345Y0086549D01*
X0174821Y0086072D01*
X0175445Y0084566D01*
X0175445Y0082934D01*
X0174821Y0081428D01*
X0173668Y0080274D01*
X0172161Y0079650D01*
X0170530Y0079650D01*
X0169926Y0079900D01*
X0130828Y0079900D01*
X0129872Y0080296D01*
X0129141Y0081027D01*
X0126221Y0083947D01*
X0123879Y0083947D01*
X0123754Y0083645D01*
X0122997Y0082888D01*
X0122533Y0082696D01*
X0123668Y0082226D01*
X0124821Y0081072D01*
X0125445Y0079566D01*
X0125445Y0077934D01*
X0124821Y0076428D01*
X0123668Y0075274D01*
X0122161Y0074650D01*
X0120530Y0074650D01*
X0119023Y0075274D01*
X0118147Y0076150D01*
X0117078Y0076150D01*
X0116122Y0076546D01*
X0112372Y0080296D01*
X0111641Y0081027D01*
X0111245Y0081983D01*
X0111245Y0095112D01*
X0099965Y0105524D01*
X0099821Y0105178D01*
X0098945Y0104302D01*
X0098945Y0100733D01*
X0098549Y0099777D01*
X0093772Y0095000D01*
X0105289Y0083483D01*
X0106780Y0084100D01*
X0108411Y0084100D01*
X0109918Y0083476D01*
X0111071Y0082322D01*
X0111695Y0080816D01*
X0111695Y0079184D01*
X0111246Y0078100D01*
X0111893Y0078100D01*
X0112274Y0077998D01*
X0112616Y0077800D01*
X0112895Y0077521D01*
X0113093Y0077179D01*
X0113195Y0076797D01*
X0113195Y0070300D01*
X0110395Y0070300D01*
X0110395Y0069700D01*
X0110395Y0061900D01*
X0111893Y0061900D01*
X0112274Y0062002D01*
X0112616Y0062200D01*
X0112895Y0062479D01*
X0113093Y0062821D01*
X0113195Y0063203D01*
X0113195Y0069700D01*
X0110395Y0069700D01*
X0109795Y0069700D01*
X0106995Y0069700D01*
X0105395Y0069700D01*
X0105395Y0061900D01*
X0106893Y0061900D01*
X0107274Y0062002D01*
X0107595Y0062188D01*
X0107916Y0062002D01*
X0108298Y0061900D01*
X0109795Y0061900D01*
X0109795Y0069700D01*
X0109795Y0070300D01*
X0105395Y0070300D01*
X0105395Y0069700D01*
X0104795Y0069700D01*
X0104795Y0061900D01*
X0103298Y0061900D01*
X0103193Y0061928D01*
X0102695Y0061430D01*
X0102695Y0053233D01*
X0102299Y0052277D01*
X0086195Y0036173D01*
X0086195Y0026201D01*
X0086881Y0025917D01*
X0088512Y0024285D01*
X0088925Y0023288D01*
X0089148Y0023725D01*
X0089629Y0024388D01*
X0090208Y0024966D01*
X0090870Y0025447D01*
X0091599Y0025819D01*
X0092377Y0026072D01*
X0093095Y0026186D01*
X0093095Y0021500D01*
X0094095Y0021500D01*
X0094095Y0026186D01*
X0094813Y0026072D01*
X0095591Y0025819D01*
X0096321Y0025447D01*
X0096983Y0024966D01*
X0097561Y0024388D01*
X0098043Y0023725D01*
X0098265Y0023288D01*
X0098678Y0024285D01*
X0100310Y0025917D01*
X0102441Y0026800D01*
X0104749Y0026800D01*
X0106881Y0025917D01*
X0108512Y0024285D01*
X0109395Y0022154D01*
X0109395Y0019846D01*
X0108512Y0017715D01*
X0106881Y0016083D01*
X0106195Y0014985D02*
X0178220Y0014985D01*
X0178220Y0013987D02*
X0105990Y0013987D01*
X0108622Y0017981D02*
X0178220Y0017981D01*
X0178220Y0018979D02*
X0109036Y0018979D01*
X0109395Y0019978D02*
X0178220Y0019978D01*
X0178220Y0020976D02*
X0109395Y0020976D01*
X0109395Y0021975D02*
X0178220Y0021975D01*
X0178220Y0022973D02*
X0109056Y0022973D01*
X0108642Y0023972D02*
X0178220Y0023972D01*
X0178220Y0024970D02*
X0107827Y0024970D01*
X0106756Y0025969D02*
X0178220Y0025969D01*
X0178220Y0026967D02*
X0086195Y0026967D01*
X0086195Y0027966D02*
X0178220Y0027966D01*
X0178220Y0028964D02*
X0086195Y0028964D01*
X0086195Y0029963D02*
X0178220Y0029963D01*
X0178220Y0030961D02*
X0086195Y0030961D01*
X0086195Y0031960D02*
X0178220Y0031960D01*
X0178220Y0032958D02*
X0086195Y0032958D01*
X0086195Y0033957D02*
X0178220Y0033957D01*
X0178220Y0034955D02*
X0086195Y0034955D01*
X0086195Y0035954D02*
X0178220Y0035954D01*
X0178220Y0036952D02*
X0086974Y0036952D01*
X0087973Y0037951D02*
X0178220Y0037951D01*
X0178220Y0038949D02*
X0142044Y0038949D01*
X0142016Y0038937D02*
X0144000Y0039760D01*
X0145519Y0041279D01*
X0145985Y0042404D01*
X0146717Y0042101D01*
X0148865Y0042101D01*
X0150850Y0042923D01*
X0152369Y0044442D01*
X0153191Y0046426D01*
X0153191Y0048575D01*
X0152369Y0050559D01*
X0150850Y0052079D01*
X0148865Y0052901D01*
X0146717Y0052901D01*
X0144732Y0052079D01*
X0143213Y0050559D01*
X0142747Y0049435D01*
X0142016Y0049737D01*
X0139867Y0049737D01*
X0137883Y0048915D01*
X0136364Y0047396D01*
X0135542Y0045412D01*
X0135542Y0043263D01*
X0136364Y0041279D01*
X0137883Y0039760D01*
X0139867Y0038937D01*
X0142016Y0038937D01*
X0139839Y0038949D02*
X0088971Y0038949D01*
X0089970Y0039948D02*
X0137694Y0039948D01*
X0136696Y0040946D02*
X0090968Y0040946D01*
X0091967Y0041945D02*
X0136088Y0041945D01*
X0135674Y0042943D02*
X0092966Y0042943D01*
X0093964Y0043942D02*
X0135542Y0043942D01*
X0135542Y0044940D02*
X0094963Y0044940D01*
X0095961Y0045939D02*
X0135760Y0045939D01*
X0136174Y0046937D02*
X0096960Y0046937D01*
X0097958Y0047936D02*
X0136903Y0047936D01*
X0137929Y0048934D02*
X0098957Y0048934D01*
X0099955Y0049933D02*
X0142953Y0049933D01*
X0143585Y0050932D02*
X0100954Y0050932D01*
X0101952Y0051930D02*
X0144583Y0051930D01*
X0150998Y0051930D02*
X0178220Y0051930D01*
X0178220Y0050932D02*
X0151997Y0050932D01*
X0152628Y0049933D02*
X0178220Y0049933D01*
X0178220Y0048934D02*
X0153042Y0048934D01*
X0153191Y0047936D02*
X0178220Y0047936D01*
X0178220Y0046937D02*
X0153191Y0046937D01*
X0152989Y0045939D02*
X0178220Y0045939D01*
X0178220Y0044940D02*
X0152575Y0044940D01*
X0151869Y0043942D02*
X0178220Y0043942D01*
X0178220Y0042943D02*
X0150870Y0042943D01*
X0145795Y0041945D02*
X0178220Y0041945D01*
X0178220Y0040946D02*
X0145187Y0040946D01*
X0144189Y0039948D02*
X0178220Y0039948D01*
X0178220Y0052929D02*
X0102569Y0052929D01*
X0102695Y0053927D02*
X0178220Y0053927D01*
X0178220Y0054926D02*
X0102695Y0054926D01*
X0102695Y0055924D02*
X0178220Y0055924D01*
X0178220Y0056923D02*
X0102695Y0056923D01*
X0102695Y0057921D02*
X0178220Y0057921D01*
X0178220Y0058920D02*
X0102695Y0058920D01*
X0102695Y0059918D02*
X0178220Y0059918D01*
X0178220Y0060917D02*
X0102695Y0060917D01*
X0103180Y0061915D02*
X0103241Y0061915D01*
X0104795Y0061915D02*
X0105395Y0061915D01*
X0105395Y0062914D02*
X0104795Y0062914D01*
X0104795Y0063912D02*
X0105395Y0063912D01*
X0105395Y0064911D02*
X0104795Y0064911D01*
X0104795Y0065909D02*
X0105395Y0065909D01*
X0105395Y0066908D02*
X0104795Y0066908D01*
X0104795Y0067906D02*
X0105395Y0067906D01*
X0105395Y0068905D02*
X0104795Y0068905D01*
X0105395Y0069903D02*
X0109795Y0069903D01*
X0110395Y0069903D02*
X0178220Y0069903D01*
X0178220Y0068905D02*
X0113195Y0068905D01*
X0113195Y0067906D02*
X0178220Y0067906D01*
X0178220Y0066908D02*
X0113195Y0066908D01*
X0113195Y0065909D02*
X0178220Y0065909D01*
X0178220Y0064911D02*
X0113195Y0064911D01*
X0113195Y0063912D02*
X0178220Y0063912D01*
X0178220Y0062914D02*
X0113118Y0062914D01*
X0111949Y0061915D02*
X0178220Y0061915D01*
X0178220Y0070902D02*
X0113195Y0070902D01*
X0113195Y0071900D02*
X0178220Y0071900D01*
X0178220Y0072899D02*
X0113195Y0072899D01*
X0113195Y0073897D02*
X0178220Y0073897D01*
X0178220Y0074896D02*
X0122754Y0074896D01*
X0124288Y0075894D02*
X0178220Y0075894D01*
X0178220Y0076893D02*
X0125014Y0076893D01*
X0125427Y0077891D02*
X0178220Y0077891D01*
X0178220Y0078890D02*
X0125445Y0078890D01*
X0125311Y0079888D02*
X0169954Y0079888D01*
X0172736Y0079888D02*
X0178220Y0079888D01*
X0178220Y0080887D02*
X0174280Y0080887D01*
X0175011Y0081885D02*
X0178220Y0081885D01*
X0178220Y0082884D02*
X0175424Y0082884D01*
X0175445Y0083882D02*
X0178220Y0083882D01*
X0178220Y0084881D02*
X0175315Y0084881D01*
X0174901Y0085879D02*
X0178220Y0085879D01*
X0175460Y0086878D02*
X0174460Y0086878D01*
X0174460Y0087876D02*
X0175460Y0087876D01*
X0175460Y0088875D02*
X0174460Y0088875D01*
X0174460Y0089873D02*
X0175460Y0089873D01*
X0175460Y0090872D02*
X0174460Y0090872D01*
X0174460Y0091870D02*
X0160969Y0091870D01*
X0161064Y0090872D02*
X0169720Y0090872D01*
X0169720Y0089873D02*
X0161064Y0089873D01*
X0161064Y0087876D02*
X0169720Y0087876D01*
X0169720Y0088875D02*
X0158079Y0088875D01*
X0157111Y0088875D02*
X0148897Y0088875D01*
X0149896Y0089873D02*
X0154127Y0089873D01*
X0154127Y0090872D02*
X0150894Y0090872D01*
X0151893Y0091870D02*
X0154222Y0091870D01*
X0153527Y0092869D02*
X0152891Y0092869D01*
X0152595Y0096250D02*
X0157192Y0096250D01*
X0157595Y0095846D01*
X0161664Y0095865D02*
X0169909Y0095865D01*
X0169987Y0096863D02*
X0161664Y0096863D01*
X0161664Y0097862D02*
X0169120Y0097862D01*
X0169120Y0098860D02*
X0161664Y0098860D01*
X0160373Y0102222D02*
X0160095Y0102500D01*
X0160373Y0102222D02*
X0164527Y0102222D01*
X0168578Y0099859D02*
X0169120Y0099859D01*
X0169720Y0094866D02*
X0161664Y0094866D01*
X0161664Y0093868D02*
X0169720Y0093868D01*
X0169720Y0092869D02*
X0161664Y0092869D01*
X0158079Y0087876D02*
X0157111Y0087876D01*
X0157111Y0088669D02*
X0157111Y0085488D01*
X0155429Y0085488D01*
X0155048Y0085590D01*
X0154706Y0085788D01*
X0154426Y0086067D01*
X0154229Y0086409D01*
X0154127Y0086791D01*
X0154127Y0088669D01*
X0157111Y0088669D01*
X0157111Y0086878D02*
X0158079Y0086878D01*
X0158079Y0085879D02*
X0157111Y0085879D01*
X0154614Y0085879D02*
X0145901Y0085879D01*
X0146900Y0086878D02*
X0154127Y0086878D01*
X0154127Y0087876D02*
X0147899Y0087876D01*
X0143406Y0090738D02*
X0141518Y0088850D01*
X0134922Y0088850D01*
X0132434Y0091338D01*
X0133104Y0091338D01*
X0133104Y0101409D01*
X0134072Y0101409D01*
X0134072Y0091338D01*
X0135754Y0091338D01*
X0136136Y0091440D01*
X0136478Y0091638D01*
X0136757Y0091917D01*
X0136954Y0092259D01*
X0137057Y0092640D01*
X0137057Y0101409D01*
X0134072Y0101409D01*
X0134072Y0102377D01*
X0137057Y0102377D01*
X0137057Y0111146D01*
X0136954Y0111527D01*
X0136757Y0111869D01*
X0136478Y0112148D01*
X0136239Y0112286D01*
X0137418Y0112774D01*
X0138031Y0113387D01*
X0138497Y0112921D01*
X0137394Y0111818D01*
X0137394Y0091968D01*
X0138624Y0090738D01*
X0143406Y0090738D01*
X0142542Y0089873D02*
X0133899Y0089873D01*
X0134897Y0088875D02*
X0141543Y0088875D01*
X0142595Y0086250D02*
X0152595Y0096250D01*
X0150530Y0097862D02*
X0145531Y0097862D01*
X0145531Y0098860D02*
X0153527Y0098860D01*
X0153976Y0099859D02*
X0145531Y0099859D01*
X0145531Y0100857D02*
X0154047Y0100857D01*
X0154467Y0101856D02*
X0145531Y0101856D01*
X0145531Y0102854D02*
X0154997Y0102854D01*
X0155245Y0103853D02*
X0145531Y0103853D01*
X0145531Y0104851D02*
X0155245Y0104851D01*
X0155245Y0105850D02*
X0145531Y0105850D01*
X0145531Y0106848D02*
X0155245Y0106848D01*
X0155245Y0107847D02*
X0145531Y0107847D01*
X0145531Y0108845D02*
X0155245Y0108845D01*
X0155245Y0109844D02*
X0145531Y0109844D01*
X0145531Y0110842D02*
X0155245Y0110842D01*
X0155245Y0111841D02*
X0145508Y0111841D01*
X0144509Y0112839D02*
X0155245Y0112839D01*
X0155245Y0113838D02*
X0155196Y0113838D01*
X0162445Y0114647D02*
X0162445Y0119227D01*
X0162945Y0120434D01*
X0162945Y0122066D01*
X0162321Y0123572D01*
X0161168Y0124726D01*
X0159661Y0125350D01*
X0158030Y0125350D01*
X0156523Y0124726D01*
X0156161Y0124364D01*
X0156161Y0129375D01*
X0178220Y0129375D01*
X0178220Y0128131D01*
X0175460Y0128131D01*
X0175460Y0123588D01*
X0174460Y0123588D01*
X0174460Y0122588D01*
X0169720Y0122588D01*
X0169720Y0119347D01*
X0169822Y0118966D01*
X0170020Y0118624D01*
X0170299Y0118344D01*
X0170584Y0118180D01*
X0170350Y0118180D01*
X0169120Y0116950D01*
X0169120Y0111721D01*
X0168783Y0112058D01*
X0168783Y0112458D01*
X0168383Y0112458D01*
X0168383Y0112458D01*
X0168783Y0112458D01*
X0168783Y0113345D01*
X0168681Y0113726D01*
X0168483Y0114068D01*
X0168204Y0114347D01*
X0167862Y0114545D01*
X0167480Y0114647D01*
X0164527Y0114647D01*
X0162445Y0114647D01*
X0162445Y0114836D02*
X0169120Y0114836D01*
X0169120Y0113838D02*
X0168616Y0113838D01*
X0168783Y0112839D02*
X0169120Y0112839D01*
X0169120Y0111841D02*
X0169000Y0111841D01*
X0164527Y0112688D02*
X0164527Y0114647D01*
X0164527Y0112688D01*
X0164527Y0112688D01*
X0164527Y0112839D02*
X0164527Y0112839D01*
X0164527Y0113838D02*
X0164527Y0113838D01*
X0162445Y0115835D02*
X0169120Y0115835D01*
X0169120Y0116833D02*
X0162445Y0116833D01*
X0162445Y0117832D02*
X0170002Y0117832D01*
X0169900Y0118830D02*
X0162445Y0118830D01*
X0162694Y0119829D02*
X0169720Y0119829D01*
X0169720Y0120827D02*
X0162945Y0120827D01*
X0162945Y0121826D02*
X0169720Y0121826D01*
X0169720Y0123588D02*
X0174460Y0123588D01*
X0174460Y0128131D01*
X0171022Y0128131D01*
X0170641Y0128029D01*
X0170299Y0127832D01*
X0170020Y0127552D01*
X0169822Y0127210D01*
X0169720Y0126829D01*
X0169720Y0123588D01*
X0169720Y0123823D02*
X0162071Y0123823D01*
X0162631Y0122824D02*
X0174460Y0122824D01*
X0174460Y0123823D02*
X0175460Y0123823D01*
X0175460Y0124821D02*
X0174460Y0124821D01*
X0174460Y0125820D02*
X0175460Y0125820D01*
X0175460Y0126818D02*
X0174460Y0126818D01*
X0174460Y0127817D02*
X0175460Y0127817D01*
X0178220Y0128815D02*
X0156161Y0128815D01*
X0156161Y0127817D02*
X0170284Y0127817D01*
X0169720Y0126818D02*
X0156161Y0126818D01*
X0156161Y0125820D02*
X0169720Y0125820D01*
X0169720Y0124821D02*
X0160937Y0124821D01*
X0156753Y0124821D02*
X0156161Y0124821D01*
X0145661Y0124821D02*
X0129389Y0124821D01*
X0129389Y0123823D02*
X0145661Y0123823D01*
X0145661Y0122824D02*
X0129389Y0122824D01*
X0129389Y0121826D02*
X0145661Y0121826D01*
X0145661Y0120827D02*
X0129389Y0120827D01*
X0129389Y0119829D02*
X0133021Y0119829D01*
X0131877Y0118830D02*
X0129389Y0118830D01*
X0129389Y0117832D02*
X0131313Y0117832D01*
X0130995Y0116833D02*
X0129389Y0116833D01*
X0129389Y0115835D02*
X0130995Y0115835D01*
X0131243Y0114836D02*
X0129389Y0114836D01*
X0128424Y0113838D02*
X0131709Y0113838D01*
X0132708Y0112839D02*
X0113098Y0112839D01*
X0113195Y0113838D02*
X0119855Y0113838D01*
X0118890Y0114836D02*
X0113195Y0114836D01*
X0113195Y0115835D02*
X0118890Y0115835D01*
X0118890Y0116833D02*
X0113195Y0116833D01*
X0113195Y0117832D02*
X0118890Y0117832D01*
X0118890Y0118830D02*
X0113195Y0118830D01*
X0113195Y0120827D02*
X0118890Y0120827D01*
X0118890Y0119829D02*
X0110395Y0119829D01*
X0109795Y0119829D02*
X0105395Y0119829D01*
X0105395Y0120827D02*
X0104795Y0120827D01*
X0104795Y0121826D02*
X0105395Y0121826D01*
X0105395Y0122824D02*
X0104795Y0122824D01*
X0104795Y0123823D02*
X0105395Y0123823D01*
X0105395Y0124821D02*
X0104795Y0124821D01*
X0104795Y0125820D02*
X0105395Y0125820D01*
X0105395Y0126818D02*
X0104795Y0126818D01*
X0104795Y0127817D02*
X0105395Y0127817D01*
X0107587Y0127817D02*
X0107603Y0127817D01*
X0109795Y0127817D02*
X0110395Y0127817D01*
X0110395Y0126818D02*
X0109795Y0126818D01*
X0109795Y0125820D02*
X0110395Y0125820D01*
X0110395Y0124821D02*
X0109795Y0124821D01*
X0109795Y0123823D02*
X0110395Y0123823D01*
X0110395Y0122824D02*
X0109795Y0122824D01*
X0109795Y0121826D02*
X0110395Y0121826D01*
X0110395Y0120827D02*
X0109795Y0120827D01*
X0113195Y0121826D02*
X0118890Y0121826D01*
X0118890Y0122824D02*
X0113195Y0122824D01*
X0113195Y0123823D02*
X0118890Y0123823D01*
X0118890Y0124821D02*
X0113195Y0124821D01*
X0113195Y0125820D02*
X0118890Y0125820D01*
X0118890Y0126818D02*
X0113190Y0126818D01*
X0112587Y0127817D02*
X0118890Y0127817D01*
X0118890Y0128815D02*
X0069623Y0128815D01*
X0069633Y0127817D02*
X0072603Y0127817D01*
X0072001Y0126818D02*
X0069643Y0126818D01*
X0069652Y0125820D02*
X0071995Y0125820D01*
X0071995Y0124821D02*
X0069662Y0124821D01*
X0069672Y0123823D02*
X0071995Y0123823D01*
X0071995Y0122824D02*
X0069681Y0122824D01*
X0069691Y0121826D02*
X0071995Y0121826D01*
X0071995Y0120827D02*
X0069701Y0120827D01*
X0069710Y0119829D02*
X0074795Y0119829D01*
X0074795Y0120827D02*
X0075395Y0120827D01*
X0075395Y0121826D02*
X0074795Y0121826D01*
X0074795Y0122824D02*
X0075395Y0122824D01*
X0075395Y0123823D02*
X0074795Y0123823D01*
X0074795Y0124821D02*
X0075395Y0124821D01*
X0075395Y0125820D02*
X0074795Y0125820D01*
X0074795Y0126818D02*
X0075395Y0126818D01*
X0075395Y0127817D02*
X0074795Y0127817D01*
X0080095Y0120000D02*
X0080095Y0110000D01*
X0078845Y0108750D01*
X0078845Y0106250D01*
X0090095Y0095000D01*
X0096345Y0101250D01*
X0096345Y0107500D01*
X0096345Y0111250D02*
X0097595Y0111250D01*
X0113845Y0096250D01*
X0113845Y0082500D01*
X0117595Y0078750D01*
X0121345Y0078750D01*
X0118403Y0075894D02*
X0113195Y0075894D01*
X0113195Y0074896D02*
X0119936Y0074896D01*
X0115775Y0076893D02*
X0113170Y0076893D01*
X0112458Y0077891D02*
X0114777Y0077891D01*
X0113778Y0078890D02*
X0111573Y0078890D01*
X0111695Y0079888D02*
X0112780Y0079888D01*
X0111781Y0080887D02*
X0111666Y0080887D01*
X0111285Y0081885D02*
X0111252Y0081885D01*
X0111245Y0082884D02*
X0110510Y0082884D01*
X0111245Y0083882D02*
X0108936Y0083882D01*
X0111245Y0084881D02*
X0103891Y0084881D01*
X0102893Y0085879D02*
X0111245Y0085879D01*
X0111245Y0086878D02*
X0101894Y0086878D01*
X0100896Y0087876D02*
X0111245Y0087876D01*
X0111245Y0088875D02*
X0099897Y0088875D01*
X0098899Y0089873D02*
X0111245Y0089873D01*
X0111245Y0090872D02*
X0097900Y0090872D01*
X0096902Y0091870D02*
X0111245Y0091870D01*
X0111245Y0092869D02*
X0095903Y0092869D01*
X0094905Y0093868D02*
X0111245Y0093868D01*
X0111245Y0094866D02*
X0093906Y0094866D01*
X0094637Y0095865D02*
X0110430Y0095865D01*
X0109348Y0096863D02*
X0095635Y0096863D01*
X0096634Y0097862D02*
X0108266Y0097862D01*
X0107184Y0098860D02*
X0097632Y0098860D01*
X0098583Y0099859D02*
X0106103Y0099859D01*
X0105021Y0100857D02*
X0098945Y0100857D01*
X0098945Y0101856D02*
X0103939Y0101856D01*
X0102857Y0102854D02*
X0098945Y0102854D01*
X0098945Y0103853D02*
X0101776Y0103853D01*
X0100694Y0104851D02*
X0099495Y0104851D01*
X0101345Y0111250D02*
X0108845Y0111250D01*
X0118845Y0101250D01*
X0122618Y0102854D02*
X0130120Y0102854D01*
X0130120Y0103853D02*
X0122041Y0103853D01*
X0120865Y0104851D02*
X0130120Y0104851D01*
X0130120Y0105850D02*
X0117922Y0105850D01*
X0116924Y0106848D02*
X0130120Y0106848D01*
X0130120Y0107847D02*
X0115925Y0107847D01*
X0114927Y0108845D02*
X0130120Y0108845D01*
X0130120Y0109844D02*
X0113928Y0109844D01*
X0112930Y0110842D02*
X0130120Y0110842D01*
X0130403Y0111841D02*
X0111931Y0111841D01*
X0101345Y0111250D02*
X0100095Y0112500D01*
X0100095Y0120000D01*
X0095095Y0120000D02*
X0095095Y0112500D01*
X0096345Y0111250D01*
X0088845Y0107500D02*
X0088845Y0105000D01*
X0088845Y0107500D02*
X0085095Y0111250D01*
X0085095Y0120000D01*
X0085095Y0121250D01*
X0075395Y0118830D02*
X0074795Y0118830D01*
X0074795Y0117832D02*
X0075395Y0117832D01*
X0075395Y0116833D02*
X0074795Y0116833D01*
X0074795Y0115835D02*
X0075395Y0115835D01*
X0075395Y0114836D02*
X0074795Y0114836D01*
X0074795Y0113838D02*
X0075395Y0113838D01*
X0075395Y0112839D02*
X0074795Y0112839D01*
X0076138Y0111841D02*
X0069788Y0111841D01*
X0069778Y0112839D02*
X0072092Y0112839D01*
X0071995Y0113838D02*
X0069768Y0113838D01*
X0069759Y0114836D02*
X0071995Y0114836D01*
X0071995Y0115835D02*
X0069749Y0115835D01*
X0069739Y0116833D02*
X0071995Y0116833D01*
X0071995Y0117832D02*
X0069730Y0117832D01*
X0069720Y0118830D02*
X0071995Y0118830D01*
X0069797Y0110842D02*
X0075274Y0110842D01*
X0074860Y0109844D02*
X0069807Y0109844D01*
X0069816Y0108845D02*
X0074745Y0108845D01*
X0074781Y0107847D02*
X0069826Y0107847D01*
X0069836Y0106848D02*
X0075195Y0106848D01*
X0075947Y0105850D02*
X0069845Y0105850D01*
X0069855Y0104851D02*
X0076610Y0104851D01*
X0077566Y0103853D02*
X0069865Y0103853D01*
X0069874Y0102854D02*
X0078564Y0102854D01*
X0079563Y0101856D02*
X0069884Y0101856D01*
X0069894Y0100857D02*
X0080561Y0100857D01*
X0081560Y0099859D02*
X0069903Y0099859D01*
X0069913Y0098860D02*
X0082558Y0098860D01*
X0083557Y0097862D02*
X0069923Y0097862D01*
X0069932Y0096863D02*
X0084555Y0096863D01*
X0085554Y0095865D02*
X0069942Y0095865D01*
X0069952Y0094866D02*
X0086552Y0094866D01*
X0087551Y0093868D02*
X0069961Y0093868D01*
X0069971Y0092869D02*
X0088549Y0092869D01*
X0089548Y0091870D02*
X0069980Y0091870D01*
X0069990Y0090872D02*
X0090546Y0090872D01*
X0091545Y0089873D02*
X0070000Y0089873D01*
X0070009Y0088875D02*
X0092543Y0088875D01*
X0093542Y0087876D02*
X0070019Y0087876D01*
X0070029Y0086878D02*
X0094540Y0086878D01*
X0095539Y0085879D02*
X0082514Y0085879D01*
X0083512Y0084881D02*
X0096537Y0084881D01*
X0097536Y0083882D02*
X0083960Y0083882D01*
X0084195Y0082884D02*
X0098534Y0082884D01*
X0099533Y0081885D02*
X0084195Y0081885D01*
X0083865Y0080887D02*
X0100531Y0080887D01*
X0101530Y0079888D02*
X0083282Y0079888D01*
X0082695Y0078890D02*
X0102528Y0078890D01*
X0105095Y0080000D02*
X0090095Y0095000D01*
X0104890Y0083882D02*
X0106254Y0083882D01*
X0105095Y0080000D02*
X0107595Y0080000D01*
X0109795Y0068905D02*
X0110395Y0068905D01*
X0110395Y0067906D02*
X0109795Y0067906D01*
X0109795Y0066908D02*
X0110395Y0066908D01*
X0110395Y0065909D02*
X0109795Y0065909D01*
X0109795Y0064911D02*
X0110395Y0064911D01*
X0110395Y0063912D02*
X0109795Y0063912D01*
X0109795Y0062914D02*
X0110395Y0062914D01*
X0110395Y0061915D02*
X0109795Y0061915D01*
X0108241Y0061915D02*
X0106949Y0061915D01*
X0100095Y0070000D02*
X0100095Y0053750D01*
X0083595Y0037250D01*
X0083595Y0021000D01*
X0087827Y0024970D02*
X0090213Y0024970D01*
X0089327Y0023972D02*
X0088642Y0023972D01*
X0086756Y0025969D02*
X0092060Y0025969D01*
X0093095Y0025969D02*
X0094095Y0025969D01*
X0094095Y0024970D02*
X0093095Y0024970D01*
X0093095Y0023972D02*
X0094095Y0023972D01*
X0094095Y0022973D02*
X0093095Y0022973D01*
X0093095Y0021975D02*
X0094095Y0021975D01*
X0095130Y0025969D02*
X0100435Y0025969D01*
X0099363Y0024970D02*
X0096977Y0024970D01*
X0097864Y0023972D02*
X0098548Y0023972D01*
X0073595Y0021000D02*
X0073595Y0037250D01*
X0095095Y0058750D01*
X0095095Y0070000D01*
X0085095Y0070000D02*
X0085095Y0058750D01*
X0063595Y0037250D01*
X0063595Y0021000D01*
X0055368Y0038949D02*
X0055095Y0038949D01*
X0055095Y0039948D02*
X0056366Y0039948D01*
X0057365Y0040946D02*
X0055095Y0040946D01*
X0055095Y0041945D02*
X0058363Y0041945D01*
X0059362Y0042943D02*
X0055095Y0042943D01*
X0055095Y0043942D02*
X0060360Y0043942D01*
X0061359Y0044940D02*
X0055095Y0044940D01*
X0055095Y0045939D02*
X0062357Y0045939D01*
X0063356Y0046937D02*
X0055095Y0046937D01*
X0055095Y0047936D02*
X0064354Y0047936D01*
X0065353Y0048934D02*
X0055095Y0048934D01*
X0055095Y0049933D02*
X0066351Y0049933D01*
X0067350Y0050932D02*
X0055095Y0050932D01*
X0055095Y0051930D02*
X0068348Y0051930D01*
X0069347Y0052929D02*
X0055095Y0052929D01*
X0055095Y0053927D02*
X0066161Y0053927D01*
X0063483Y0054926D02*
X0062514Y0054926D01*
X0062514Y0055924D02*
X0063483Y0055924D01*
X0063483Y0056923D02*
X0062514Y0056923D01*
X0062514Y0057921D02*
X0055095Y0057921D01*
X0055095Y0056923D02*
X0059333Y0056923D01*
X0059333Y0055924D02*
X0055095Y0055924D01*
X0055095Y0054926D02*
X0059451Y0054926D01*
X0059333Y0058920D02*
X0055095Y0058920D01*
X0055095Y0059918D02*
X0059401Y0059918D01*
X0060442Y0060917D02*
X0055095Y0060917D01*
X0055095Y0061915D02*
X0058241Y0061915D01*
X0057073Y0062914D02*
X0055095Y0062914D01*
X0055095Y0063912D02*
X0056995Y0063912D01*
X0056995Y0064911D02*
X0055095Y0064911D01*
X0055095Y0065909D02*
X0056995Y0065909D01*
X0056995Y0066908D02*
X0055095Y0066908D01*
X0055095Y0067906D02*
X0056995Y0067906D01*
X0056995Y0068905D02*
X0055095Y0068905D01*
X0055095Y0069903D02*
X0059795Y0069903D01*
X0059795Y0070300D02*
X0056995Y0070300D01*
X0056995Y0076797D01*
X0057097Y0077179D01*
X0057295Y0077521D01*
X0057574Y0077800D01*
X0057916Y0077998D01*
X0058298Y0078100D01*
X0059795Y0078100D01*
X0059795Y0070300D01*
X0059795Y0070902D02*
X0060395Y0070902D01*
X0060395Y0071900D02*
X0059795Y0071900D01*
X0059795Y0072899D02*
X0060395Y0072899D01*
X0060395Y0073897D02*
X0059795Y0073897D01*
X0059795Y0074896D02*
X0060395Y0074896D01*
X0060395Y0075894D02*
X0059795Y0075894D01*
X0059795Y0076893D02*
X0060395Y0076893D01*
X0060395Y0077891D02*
X0059795Y0077891D01*
X0057732Y0077891D02*
X0055095Y0077891D01*
X0055095Y0076893D02*
X0057021Y0076893D01*
X0056995Y0075894D02*
X0055095Y0075894D01*
X0055095Y0074896D02*
X0056995Y0074896D01*
X0056995Y0073897D02*
X0055095Y0073897D01*
X0055095Y0072899D02*
X0056995Y0072899D01*
X0056995Y0071900D02*
X0055095Y0071900D01*
X0055095Y0070902D02*
X0056995Y0070902D01*
X0059795Y0068905D02*
X0060395Y0068905D01*
X0060395Y0069903D02*
X0064795Y0069903D01*
X0064795Y0068905D02*
X0065395Y0068905D01*
X0065395Y0067906D02*
X0064795Y0067906D01*
X0064795Y0066908D02*
X0065395Y0066908D01*
X0065395Y0065909D02*
X0064795Y0065909D01*
X0064795Y0064911D02*
X0065395Y0064911D01*
X0065395Y0063912D02*
X0064795Y0063912D01*
X0064795Y0062914D02*
X0065395Y0062914D01*
X0065395Y0061915D02*
X0064795Y0061915D01*
X0065555Y0060917D02*
X0066005Y0060917D01*
X0066949Y0061915D02*
X0067010Y0061915D01*
X0063483Y0060917D02*
X0062514Y0060917D01*
X0062514Y0059918D02*
X0063483Y0059918D01*
X0063483Y0058920D02*
X0062514Y0058920D01*
X0061949Y0061915D02*
X0063241Y0061915D01*
X0060395Y0061915D02*
X0059795Y0061915D01*
X0059795Y0062914D02*
X0060395Y0062914D01*
X0060395Y0063912D02*
X0059795Y0063912D01*
X0059795Y0064911D02*
X0060395Y0064911D01*
X0060395Y0065909D02*
X0059795Y0065909D01*
X0059795Y0066908D02*
X0060395Y0066908D01*
X0060395Y0067906D02*
X0059795Y0067906D01*
X0064795Y0070902D02*
X0065395Y0070902D01*
X0065395Y0071900D02*
X0064795Y0071900D01*
X0064795Y0072899D02*
X0065395Y0072899D01*
X0065395Y0073897D02*
X0064795Y0073897D01*
X0064795Y0074896D02*
X0065395Y0074896D01*
X0065395Y0075894D02*
X0064795Y0075894D01*
X0064795Y0076893D02*
X0065395Y0076893D01*
X0065395Y0077891D02*
X0064795Y0077891D01*
X0062732Y0077891D02*
X0062458Y0077891D01*
X0055095Y0078890D02*
X0077495Y0078890D01*
X0075395Y0077891D02*
X0074795Y0077891D01*
X0074795Y0076893D02*
X0075395Y0076893D01*
X0075395Y0075894D02*
X0074795Y0075894D01*
X0074795Y0074896D02*
X0075395Y0074896D01*
X0075395Y0073897D02*
X0074795Y0073897D01*
X0074795Y0072899D02*
X0075395Y0072899D01*
X0075395Y0071900D02*
X0074795Y0071900D01*
X0074795Y0070902D02*
X0075395Y0070902D01*
X0075395Y0069700D02*
X0075395Y0061900D01*
X0076893Y0061900D01*
X0076997Y0061928D01*
X0077495Y0061430D01*
X0077495Y0061077D01*
X0076253Y0059835D01*
X0075612Y0060100D01*
X0073957Y0060100D01*
X0073957Y0060338D01*
X0072780Y0061515D01*
X0073193Y0061928D01*
X0073298Y0061900D01*
X0074795Y0061900D01*
X0074795Y0069700D01*
X0075395Y0069700D01*
X0075395Y0068905D02*
X0074795Y0068905D01*
X0074795Y0067906D02*
X0075395Y0067906D01*
X0075395Y0066908D02*
X0074795Y0066908D01*
X0074795Y0065909D02*
X0075395Y0065909D01*
X0075395Y0064911D02*
X0074795Y0064911D01*
X0074795Y0063912D02*
X0075395Y0063912D01*
X0075395Y0062914D02*
X0074795Y0062914D01*
X0074795Y0061915D02*
X0075395Y0061915D01*
X0076949Y0061915D02*
X0077010Y0061915D01*
X0077335Y0060917D02*
X0073379Y0060917D01*
X0073241Y0061915D02*
X0073180Y0061915D01*
X0076051Y0059918D02*
X0076336Y0059918D01*
X0075095Y0057500D02*
X0076345Y0056250D01*
X0075095Y0057500D02*
X0069692Y0057500D01*
X0079692Y0069596D02*
X0080095Y0070000D01*
X0120095Y0086547D02*
X0127298Y0086547D01*
X0131345Y0082500D01*
X0170095Y0082500D01*
X0171345Y0083750D01*
X0168675Y0086878D02*
X0161064Y0086878D01*
X0160576Y0085879D02*
X0167789Y0085879D01*
X0149531Y0096863D02*
X0145531Y0096863D01*
X0145531Y0095865D02*
X0148533Y0095865D01*
X0147534Y0094866D02*
X0145531Y0094866D01*
X0145531Y0093868D02*
X0146536Y0093868D01*
X0145537Y0092869D02*
X0145531Y0092869D01*
X0142595Y0086250D02*
X0133845Y0086250D01*
X0126642Y0093453D01*
X0127614Y0095865D02*
X0130120Y0095865D01*
X0130120Y0096863D02*
X0123246Y0096863D01*
X0121255Y0097862D02*
X0130120Y0097862D01*
X0130120Y0098860D02*
X0122253Y0098860D01*
X0122707Y0099859D02*
X0130120Y0099859D01*
X0130120Y0100857D02*
X0122945Y0100857D01*
X0122945Y0101856D02*
X0133104Y0101856D01*
X0134072Y0101856D02*
X0137394Y0101856D01*
X0137394Y0102854D02*
X0137057Y0102854D01*
X0137057Y0103853D02*
X0137394Y0103853D01*
X0137394Y0104851D02*
X0137057Y0104851D01*
X0137057Y0105850D02*
X0137394Y0105850D01*
X0137394Y0106848D02*
X0137057Y0106848D01*
X0137057Y0107847D02*
X0137394Y0107847D01*
X0137394Y0108845D02*
X0137057Y0108845D01*
X0137057Y0109844D02*
X0137394Y0109844D01*
X0137394Y0110842D02*
X0137057Y0110842D01*
X0136773Y0111841D02*
X0137416Y0111841D01*
X0137483Y0112839D02*
X0138415Y0112839D01*
X0141462Y0113633D02*
X0138845Y0116250D01*
X0135095Y0116250D01*
X0137169Y0119829D02*
X0145661Y0119829D01*
X0145661Y0118830D02*
X0139410Y0118830D01*
X0140940Y0117832D02*
X0145661Y0117832D01*
X0145661Y0116833D02*
X0141939Y0116833D01*
X0142937Y0115835D02*
X0145661Y0115835D01*
X0145661Y0114836D02*
X0143778Y0114836D01*
X0144062Y0113838D02*
X0146626Y0113838D01*
X0141462Y0113633D02*
X0141462Y0101893D01*
X0137394Y0100857D02*
X0137057Y0100857D01*
X0137057Y0099859D02*
X0137394Y0099859D01*
X0137394Y0098860D02*
X0137057Y0098860D01*
X0137057Y0097862D02*
X0137394Y0097862D01*
X0137394Y0096863D02*
X0137057Y0096863D01*
X0137057Y0095865D02*
X0137394Y0095865D01*
X0137394Y0094866D02*
X0137057Y0094866D01*
X0137057Y0093868D02*
X0137394Y0093868D01*
X0137394Y0092869D02*
X0137057Y0092869D01*
X0136710Y0091870D02*
X0137491Y0091870D01*
X0138490Y0090872D02*
X0132900Y0090872D01*
X0133104Y0091870D02*
X0134072Y0091870D01*
X0134072Y0092869D02*
X0133104Y0092869D01*
X0133104Y0093868D02*
X0134072Y0093868D01*
X0134072Y0094866D02*
X0133104Y0094866D01*
X0133104Y0095865D02*
X0134072Y0095865D01*
X0134072Y0096863D02*
X0133104Y0096863D01*
X0133104Y0097862D02*
X0134072Y0097862D01*
X0134072Y0098860D02*
X0133104Y0098860D01*
X0133104Y0099859D02*
X0134072Y0099859D01*
X0134072Y0100857D02*
X0133104Y0100857D01*
X0133104Y0102854D02*
X0134072Y0102854D01*
X0134072Y0103853D02*
X0133104Y0103853D01*
X0133104Y0104851D02*
X0134072Y0104851D01*
X0134072Y0105850D02*
X0133104Y0105850D01*
X0133104Y0106848D02*
X0134072Y0106848D01*
X0134072Y0107847D02*
X0133104Y0107847D01*
X0133104Y0108845D02*
X0134072Y0108845D01*
X0134072Y0109844D02*
X0133104Y0109844D01*
X0133104Y0110842D02*
X0134072Y0110842D01*
X0134072Y0111841D02*
X0133104Y0111841D01*
X0129389Y0125820D02*
X0145661Y0125820D01*
X0145661Y0126818D02*
X0129389Y0126818D01*
X0129389Y0127817D02*
X0145661Y0127817D01*
X0145661Y0128815D02*
X0129389Y0128815D01*
X0128906Y0094866D02*
X0130120Y0094866D01*
X0130120Y0093868D02*
X0129905Y0093868D01*
X0126286Y0083882D02*
X0123852Y0083882D01*
X0122986Y0082884D02*
X0127284Y0082884D01*
X0128283Y0081885D02*
X0124008Y0081885D01*
X0124898Y0080887D02*
X0129281Y0080887D01*
D22*
X0131345Y0075000D03*
X0121345Y0078750D03*
X0107595Y0080000D03*
X0092595Y0086000D03*
X0080095Y0082500D03*
X0077595Y0088750D03*
X0088845Y0105000D03*
X0096345Y0107500D03*
X0078845Y0108750D03*
X0115095Y0121250D03*
X0135095Y0116250D03*
X0118845Y0101250D03*
X0158845Y0121250D03*
X0165095Y0127000D03*
X0171345Y0083750D03*
X0176095Y0081000D03*
X0167595Y0043750D03*
X0056345Y0058750D03*
D23*
X0157595Y0095846D02*
X0157595Y0100000D01*
X0158845Y0102500D01*
X0158845Y0121250D01*
X0158845Y0102500D02*
X0160095Y0102500D01*
D24*
X0126642Y0093453D02*
X0120095Y0093453D01*
M02*
