G75*
%MOIN*%
%OFA0B0*%
%FSLAX25Y25*%
%IPPOS*%
%LPD*%
%AMOC8*
5,1,8,0,0,1.08239X$1,22.5*
%
%ADD10R,0.09500X0.03200*%
%ADD11R,0.05131X0.04737*%
%ADD12R,0.06587X0.05800*%
%ADD13R,0.03950X0.04343*%
%ADD14R,0.04737X0.05131*%
%ADD15R,0.02178X0.03969*%
%ADD16R,0.03969X0.02375*%
%ADD17R,0.06312X0.07099*%
%ADD18R,0.02769X0.05524*%
%ADD19R,0.05524X0.02769*%
%ADD20C,0.07400*%
%ADD21C,0.08200*%
%ADD22R,0.05524X0.02965*%
%ADD23R,0.07887X0.07099*%
%ADD24R,0.01969X0.04146*%
%ADD25R,0.10249X0.07296*%
%ADD26R,0.03556X0.01902*%
%ADD27R,0.05918X0.05918*%
%ADD28R,0.05524X0.03950*%
D10*
X0063545Y0043750D03*
X0063545Y0048750D03*
X0063545Y0053750D03*
X0063545Y0058750D03*
X0084145Y0058750D03*
X0084145Y0053750D03*
X0084145Y0048750D03*
X0084145Y0043750D03*
D11*
X0082192Y0035000D03*
X0075499Y0035000D03*
X0101749Y0051250D03*
X0108442Y0051250D03*
X0110942Y0037500D03*
X0104249Y0037500D03*
X0111749Y0027500D03*
X0118442Y0027500D03*
X0150499Y0076250D03*
X0157192Y0076250D03*
X0147192Y0123750D03*
X0140499Y0123750D03*
X0100942Y0080000D03*
X0094249Y0080000D03*
D12*
X0131345Y0038465D03*
X0131345Y0021535D03*
D13*
X0120095Y0041919D03*
X0116355Y0050187D03*
X0123835Y0050187D03*
D14*
X0125095Y0056654D03*
X0125095Y0063346D03*
X0150095Y0085404D03*
X0150095Y0092096D03*
X0147595Y0100404D03*
X0147595Y0107096D03*
X0161345Y0092096D03*
X0161345Y0085404D03*
X0172595Y0101654D03*
X0172595Y0108346D03*
X0128845Y0107904D03*
X0128845Y0114596D03*
X0123845Y0095846D03*
X0123845Y0089154D03*
X0088845Y0092904D03*
X0088845Y0099596D03*
X0078845Y0102096D03*
X0078845Y0095404D03*
X0156345Y0032096D03*
X0156345Y0025404D03*
X0169345Y0022404D03*
X0169345Y0029096D03*
X0167595Y0056654D03*
X0167595Y0063346D03*
D15*
X0112251Y0059272D03*
X0109298Y0059272D03*
X0106345Y0059272D03*
X0103392Y0059272D03*
X0100440Y0059272D03*
X0100440Y0073228D03*
X0103392Y0073228D03*
X0106345Y0073228D03*
X0109298Y0073228D03*
X0112251Y0073228D03*
D16*
X0113323Y0069065D03*
X0099367Y0066939D03*
D17*
X0088107Y0071250D03*
X0077083Y0071250D03*
X0100833Y0092500D03*
X0111857Y0092500D03*
D18*
X0112920Y0106919D03*
X0116070Y0106919D03*
X0119219Y0106919D03*
X0119219Y0115581D03*
X0116070Y0115581D03*
X0112920Y0115581D03*
X0109770Y0115581D03*
X0106621Y0115581D03*
X0103471Y0115581D03*
X0103471Y0106919D03*
X0106621Y0106919D03*
X0109770Y0106919D03*
D19*
X0103077Y0111250D03*
X0119613Y0111250D03*
D20*
X0147791Y0047501D03*
X0140942Y0044337D03*
D21*
X0063595Y0021000D03*
X0073595Y0021000D03*
X0083595Y0021000D03*
X0093595Y0021000D03*
X0103595Y0021000D03*
D22*
X0154977Y0108760D03*
X0154977Y0112500D03*
X0154977Y0116240D03*
X0165214Y0116240D03*
X0165214Y0108760D03*
D23*
X0135095Y0095512D03*
X0135095Y0084488D03*
D24*
X0151158Y0068307D03*
X0153127Y0068307D03*
X0155095Y0068307D03*
X0157064Y0068307D03*
X0159032Y0068307D03*
X0159032Y0056693D03*
X0157064Y0056693D03*
X0155095Y0056693D03*
X0153127Y0056693D03*
X0151158Y0056693D03*
D25*
X0155095Y0062500D03*
D26*
X0149190Y0061516D03*
X0149190Y0063484D03*
X0161001Y0063484D03*
X0161001Y0061516D03*
D27*
X0138845Y0057844D03*
X0138845Y0069656D03*
D28*
X0158845Y0049793D03*
X0158845Y0042707D03*
M02*
