%
M48
M72
T01C0.0200
T02C0.0315
T03C0.0400
%
T01
X5635Y5875
X8010Y8250
X7760Y8875
X9260Y8600
X10760Y8000
X12135Y7875
X13135Y7500
X11885Y10125
X13510Y11625
X11510Y12125
X9635Y10750
X8885Y10500
X7885Y10875
X15885Y12125
X16510Y12700
X17135Y8375
X17610Y8100
X16760Y4375
T02
X14779Y4750
X14094Y4434
T03
X6360Y2100
X7360Y2100
X8360Y2100
X9360Y2100
X10360Y2100
M30
