G75*
%MOIN*%
%OFA0B0*%
%FSLAX25Y25*%
%IPPOS*%
%LPD*%
%AMOC8*
5,1,8,0,0,1.08239X$1,22.5*
%
%ADD10C,0.00400*%
%ADD11C,0.00500*%
%ADD12C,0.00100*%
%ADD13C,0.00300*%
%ADD14C,0.00200*%
%ADD15C,0.02200*%
%ADD16C,0.00800*%
D10*
X0061291Y0027700D02*
X0061291Y0030002D01*
X0062059Y0030769D01*
X0063593Y0030769D01*
X0064361Y0030002D01*
X0064361Y0027700D01*
X0065895Y0027700D02*
X0061291Y0027700D01*
X0064361Y0029235D02*
X0065895Y0030769D01*
X0065128Y0032304D02*
X0065895Y0033071D01*
X0065895Y0034606D01*
X0065128Y0035373D01*
X0064361Y0035373D01*
X0063593Y0034606D01*
X0063593Y0033071D01*
X0062826Y0032304D01*
X0062059Y0032304D01*
X0061291Y0033071D01*
X0061291Y0034606D01*
X0062059Y0035373D01*
X0061291Y0036908D02*
X0061291Y0039977D01*
X0061291Y0038442D02*
X0065895Y0038442D01*
X0071291Y0035873D02*
X0075895Y0032804D01*
X0075895Y0035873D02*
X0071291Y0032804D01*
X0071291Y0031269D02*
X0071291Y0028200D01*
X0071291Y0029735D02*
X0075895Y0029735D01*
X0081291Y0030502D02*
X0081291Y0028200D01*
X0085895Y0028200D01*
X0084361Y0028200D02*
X0084361Y0030502D01*
X0083593Y0031269D01*
X0082059Y0031269D01*
X0081291Y0030502D01*
X0081291Y0032804D02*
X0085895Y0035873D01*
X0085895Y0032804D02*
X0081291Y0035873D01*
X0085895Y0031269D02*
X0084361Y0029735D01*
X0091291Y0030002D02*
X0091291Y0028467D01*
X0092059Y0027700D01*
X0095128Y0027700D01*
X0095895Y0028467D01*
X0095895Y0030002D01*
X0095128Y0030769D01*
X0093593Y0030769D01*
X0093593Y0029235D01*
X0092059Y0030769D02*
X0091291Y0030002D01*
X0091291Y0032304D02*
X0095895Y0035373D01*
X0091291Y0035373D01*
X0091291Y0036908D02*
X0091291Y0039210D01*
X0092059Y0039977D01*
X0095128Y0039977D01*
X0095895Y0039210D01*
X0095895Y0036908D01*
X0091291Y0036908D01*
X0091291Y0032304D02*
X0095895Y0032304D01*
X0101291Y0030502D02*
X0101291Y0028967D01*
X0102059Y0028200D01*
X0103593Y0029735D02*
X0103593Y0030502D01*
X0104361Y0031269D01*
X0105128Y0031269D01*
X0105895Y0030502D01*
X0105895Y0028967D01*
X0105128Y0028200D01*
X0103593Y0030502D02*
X0102826Y0031269D01*
X0102059Y0031269D01*
X0101291Y0030502D01*
X0102826Y0032804D02*
X0105895Y0034339D01*
X0102826Y0035873D01*
X0102059Y0037408D02*
X0101291Y0038175D01*
X0101291Y0039710D01*
X0102059Y0040477D01*
X0102826Y0040477D01*
X0103593Y0039710D01*
X0104361Y0040477D01*
X0105128Y0040477D01*
X0105895Y0039710D01*
X0105895Y0038175D01*
X0105128Y0037408D01*
X0103593Y0038942D02*
X0103593Y0039710D01*
X0136055Y0044443D02*
X0137105Y0047328D01*
X0150174Y0049736D02*
X0153058Y0048686D01*
X0151091Y0047769D02*
X0152141Y0050653D01*
D11*
X0156345Y0058750D02*
X0167595Y0055000D01*
X0171345Y0066250D01*
X0160095Y0070000D01*
X0120529Y0071250D02*
X0120535Y0071730D01*
X0120553Y0072210D01*
X0120582Y0072689D01*
X0120623Y0073168D01*
X0120676Y0073645D01*
X0120741Y0074121D01*
X0120817Y0074595D01*
X0120905Y0075067D01*
X0121004Y0075537D01*
X0121115Y0076004D01*
X0121238Y0076469D01*
X0121372Y0076930D01*
X0121517Y0077387D01*
X0121673Y0077842D01*
X0121840Y0078292D01*
X0122018Y0078738D01*
X0122208Y0079179D01*
X0122408Y0079616D01*
X0122618Y0080047D01*
X0122839Y0080473D01*
X0123071Y0080894D01*
X0123313Y0081309D01*
X0123565Y0081718D01*
X0123826Y0082120D01*
X0124098Y0082516D01*
X0124379Y0082905D01*
X0124670Y0083288D01*
X0124970Y0083663D01*
X0125279Y0084030D01*
X0125598Y0084390D01*
X0125924Y0084742D01*
X0126260Y0085085D01*
X0126603Y0085421D01*
X0126955Y0085747D01*
X0127315Y0086066D01*
X0127682Y0086375D01*
X0128057Y0086675D01*
X0128440Y0086966D01*
X0128829Y0087247D01*
X0129225Y0087519D01*
X0129627Y0087780D01*
X0130036Y0088032D01*
X0130451Y0088274D01*
X0130872Y0088506D01*
X0131298Y0088727D01*
X0131729Y0088937D01*
X0132166Y0089137D01*
X0132607Y0089327D01*
X0133053Y0089505D01*
X0133503Y0089672D01*
X0133958Y0089828D01*
X0134415Y0089973D01*
X0134876Y0090107D01*
X0135341Y0090230D01*
X0135808Y0090341D01*
X0136278Y0090440D01*
X0136750Y0090528D01*
X0137224Y0090604D01*
X0137700Y0090669D01*
X0138177Y0090722D01*
X0138656Y0090763D01*
X0139135Y0090792D01*
X0139615Y0090810D01*
X0140095Y0090816D01*
X0140575Y0090810D01*
X0141055Y0090792D01*
X0141534Y0090763D01*
X0142013Y0090722D01*
X0142490Y0090669D01*
X0142966Y0090604D01*
X0143440Y0090528D01*
X0143912Y0090440D01*
X0144382Y0090341D01*
X0144849Y0090230D01*
X0145314Y0090107D01*
X0145775Y0089973D01*
X0146232Y0089828D01*
X0146687Y0089672D01*
X0147137Y0089505D01*
X0147583Y0089327D01*
X0148024Y0089137D01*
X0148461Y0088937D01*
X0148892Y0088727D01*
X0149318Y0088506D01*
X0149739Y0088274D01*
X0150154Y0088032D01*
X0150563Y0087780D01*
X0150965Y0087519D01*
X0151361Y0087247D01*
X0151750Y0086966D01*
X0152133Y0086675D01*
X0152508Y0086375D01*
X0152875Y0086066D01*
X0153235Y0085747D01*
X0153587Y0085421D01*
X0153930Y0085085D01*
X0154266Y0084742D01*
X0154592Y0084390D01*
X0154911Y0084030D01*
X0155220Y0083663D01*
X0155520Y0083288D01*
X0155811Y0082905D01*
X0156092Y0082516D01*
X0156364Y0082120D01*
X0156625Y0081718D01*
X0156877Y0081309D01*
X0157119Y0080894D01*
X0157351Y0080473D01*
X0157572Y0080047D01*
X0157782Y0079616D01*
X0157982Y0079179D01*
X0158172Y0078738D01*
X0158350Y0078292D01*
X0158517Y0077842D01*
X0158673Y0077387D01*
X0158818Y0076930D01*
X0158952Y0076469D01*
X0159075Y0076004D01*
X0159186Y0075537D01*
X0159285Y0075067D01*
X0159373Y0074595D01*
X0159449Y0074121D01*
X0159514Y0073645D01*
X0159567Y0073168D01*
X0159608Y0072689D01*
X0159637Y0072210D01*
X0159655Y0071730D01*
X0159661Y0071250D01*
X0159655Y0070770D01*
X0159637Y0070290D01*
X0159608Y0069811D01*
X0159567Y0069332D01*
X0159514Y0068855D01*
X0159449Y0068379D01*
X0159373Y0067905D01*
X0159285Y0067433D01*
X0159186Y0066963D01*
X0159075Y0066496D01*
X0158952Y0066031D01*
X0158818Y0065570D01*
X0158673Y0065113D01*
X0158517Y0064658D01*
X0158350Y0064208D01*
X0158172Y0063762D01*
X0157982Y0063321D01*
X0157782Y0062884D01*
X0157572Y0062453D01*
X0157351Y0062027D01*
X0157119Y0061606D01*
X0156877Y0061191D01*
X0156625Y0060782D01*
X0156364Y0060380D01*
X0156092Y0059984D01*
X0155811Y0059595D01*
X0155520Y0059212D01*
X0155220Y0058837D01*
X0154911Y0058470D01*
X0154592Y0058110D01*
X0154266Y0057758D01*
X0153930Y0057415D01*
X0153587Y0057079D01*
X0153235Y0056753D01*
X0152875Y0056434D01*
X0152508Y0056125D01*
X0152133Y0055825D01*
X0151750Y0055534D01*
X0151361Y0055253D01*
X0150965Y0054981D01*
X0150563Y0054720D01*
X0150154Y0054468D01*
X0149739Y0054226D01*
X0149318Y0053994D01*
X0148892Y0053773D01*
X0148461Y0053563D01*
X0148024Y0053363D01*
X0147583Y0053173D01*
X0147137Y0052995D01*
X0146687Y0052828D01*
X0146232Y0052672D01*
X0145775Y0052527D01*
X0145314Y0052393D01*
X0144849Y0052270D01*
X0144382Y0052159D01*
X0143912Y0052060D01*
X0143440Y0051972D01*
X0142966Y0051896D01*
X0142490Y0051831D01*
X0142013Y0051778D01*
X0141534Y0051737D01*
X0141055Y0051708D01*
X0140575Y0051690D01*
X0140095Y0051684D01*
X0139615Y0051690D01*
X0139135Y0051708D01*
X0138656Y0051737D01*
X0138177Y0051778D01*
X0137700Y0051831D01*
X0137224Y0051896D01*
X0136750Y0051972D01*
X0136278Y0052060D01*
X0135808Y0052159D01*
X0135341Y0052270D01*
X0134876Y0052393D01*
X0134415Y0052527D01*
X0133958Y0052672D01*
X0133503Y0052828D01*
X0133053Y0052995D01*
X0132607Y0053173D01*
X0132166Y0053363D01*
X0131729Y0053563D01*
X0131298Y0053773D01*
X0130872Y0053994D01*
X0130451Y0054226D01*
X0130036Y0054468D01*
X0129627Y0054720D01*
X0129225Y0054981D01*
X0128829Y0055253D01*
X0128440Y0055534D01*
X0128057Y0055825D01*
X0127682Y0056125D01*
X0127315Y0056434D01*
X0126955Y0056753D01*
X0126603Y0057079D01*
X0126260Y0057415D01*
X0125924Y0057758D01*
X0125598Y0058110D01*
X0125279Y0058470D01*
X0124970Y0058837D01*
X0124670Y0059212D01*
X0124379Y0059595D01*
X0124098Y0059984D01*
X0123826Y0060380D01*
X0123565Y0060782D01*
X0123313Y0061191D01*
X0123071Y0061606D01*
X0122839Y0062027D01*
X0122618Y0062453D01*
X0122408Y0062884D01*
X0122208Y0063321D01*
X0122018Y0063762D01*
X0121840Y0064208D01*
X0121673Y0064658D01*
X0121517Y0065113D01*
X0121372Y0065570D01*
X0121238Y0066031D01*
X0121115Y0066496D01*
X0121004Y0066963D01*
X0120905Y0067433D01*
X0120817Y0067905D01*
X0120741Y0068379D01*
X0120676Y0068855D01*
X0120623Y0069332D01*
X0120582Y0069811D01*
X0120553Y0070290D01*
X0120535Y0070770D01*
X0120529Y0071250D01*
X0115095Y0065000D02*
X0055095Y0065000D01*
X0055095Y0080000D01*
X0070095Y0080000D01*
X0070095Y0125000D01*
X0115095Y0125000D01*
X0115095Y0065000D01*
X0055095Y0080000D02*
X0055095Y0125000D01*
X0070095Y0125000D01*
D12*
X0122894Y0092577D02*
X0124395Y0092577D01*
X0124395Y0092077D02*
X0124395Y0093078D01*
X0123394Y0092077D02*
X0122894Y0092577D01*
X0123144Y0091604D02*
X0122894Y0091354D01*
X0122894Y0090603D01*
X0124395Y0090603D01*
X0124395Y0091354D01*
X0124145Y0091604D01*
X0123144Y0091604D01*
X0132825Y0121510D02*
X0133076Y0121510D01*
X0133326Y0121760D01*
X0133326Y0123011D01*
X0133076Y0123011D02*
X0133576Y0123011D01*
X0134048Y0122511D02*
X0134549Y0123011D01*
X0134549Y0121510D01*
X0135049Y0121510D02*
X0134048Y0121510D01*
X0132825Y0121510D02*
X0132575Y0121760D01*
X0160644Y0095327D02*
X0160894Y0095578D01*
X0161895Y0094577D01*
X0162145Y0094827D01*
X0162145Y0095327D01*
X0161895Y0095578D01*
X0160894Y0095578D01*
X0160644Y0095327D02*
X0160644Y0094827D01*
X0160894Y0094577D01*
X0161895Y0094577D01*
X0162145Y0094104D02*
X0162145Y0093103D01*
X0162145Y0093604D02*
X0160644Y0093604D01*
X0161144Y0093103D01*
X0160894Y0092631D02*
X0160644Y0092381D01*
X0160644Y0091880D01*
X0160894Y0091630D01*
X0161895Y0091630D01*
X0162145Y0091880D01*
X0162145Y0092381D01*
X0161895Y0092631D01*
X0163879Y0122050D02*
X0163645Y0122284D01*
X0163879Y0122050D02*
X0164112Y0122050D01*
X0164346Y0122284D01*
X0164346Y0123451D01*
X0164579Y0123451D02*
X0164112Y0123451D01*
X0165026Y0123451D02*
X0165727Y0123451D01*
X0165960Y0123218D01*
X0165960Y0122751D01*
X0165727Y0122517D01*
X0165026Y0122517D01*
X0165026Y0122050D02*
X0165026Y0123451D01*
X0166407Y0123218D02*
X0166641Y0123451D01*
X0167108Y0123451D01*
X0167342Y0123218D01*
X0167342Y0122984D01*
X0166407Y0122050D01*
X0167342Y0122050D01*
X0068922Y0054451D02*
X0068922Y0052950D01*
X0068422Y0052950D02*
X0069423Y0052950D01*
X0068422Y0053951D02*
X0068922Y0054451D01*
X0067949Y0054201D02*
X0067699Y0054451D01*
X0067199Y0054451D01*
X0066949Y0054201D01*
X0066949Y0053200D01*
X0067199Y0052950D01*
X0067699Y0052950D01*
X0067949Y0053200D01*
D13*
X0080745Y0120150D02*
X0080745Y0122619D01*
X0080745Y0121384D02*
X0081980Y0122619D01*
X0082597Y0122619D01*
X0083814Y0122002D02*
X0084432Y0122619D01*
X0085666Y0122619D01*
X0086283Y0122002D01*
X0086283Y0121384D01*
X0083814Y0121384D01*
X0083814Y0120767D02*
X0083814Y0122002D01*
X0083814Y0120767D02*
X0084432Y0120150D01*
X0085666Y0120150D01*
X0088732Y0120150D02*
X0087498Y0122619D01*
X0087263Y0125150D02*
X0087263Y0127002D01*
X0086646Y0127619D01*
X0084795Y0127619D01*
X0084795Y0125150D01*
X0088478Y0125150D02*
X0089712Y0125150D01*
X0089095Y0125150D02*
X0089095Y0127619D01*
X0088478Y0127619D01*
X0089095Y0128853D02*
X0089095Y0129470D01*
X0090933Y0127619D02*
X0091550Y0127619D01*
X0092168Y0127002D01*
X0092785Y0127619D01*
X0093402Y0127002D01*
X0093402Y0125150D01*
X0094616Y0125150D02*
X0096468Y0125150D01*
X0097085Y0125767D01*
X0097085Y0127002D01*
X0096468Y0127619D01*
X0094616Y0127619D01*
X0094616Y0128853D02*
X0094616Y0125150D01*
X0096098Y0123853D02*
X0094864Y0122619D01*
X0096098Y0123853D02*
X0096098Y0120150D01*
X0094864Y0120150D02*
X0097333Y0120150D01*
X0098299Y0125150D02*
X0099534Y0125150D01*
X0098917Y0125150D02*
X0098917Y0128853D01*
X0098299Y0128853D01*
X0100755Y0127002D02*
X0101372Y0127619D01*
X0102606Y0127619D01*
X0103224Y0127002D01*
X0103224Y0126384D01*
X0100755Y0126384D01*
X0100755Y0125767D02*
X0100755Y0127002D01*
X0100755Y0125767D02*
X0101372Y0125150D01*
X0102606Y0125150D01*
X0108121Y0127002D02*
X0110590Y0127002D01*
X0111804Y0127002D02*
X0114273Y0127002D01*
X0092168Y0127002D02*
X0092168Y0125150D01*
X0090933Y0125150D02*
X0090933Y0127619D01*
X0089966Y0122619D02*
X0088732Y0120150D01*
X0079897Y0127002D02*
X0077428Y0127002D01*
X0076214Y0127002D02*
X0073745Y0127002D01*
D14*
X0108195Y0060902D02*
X0108195Y0058984D01*
X0108579Y0058600D01*
X0109346Y0058600D01*
X0109730Y0058984D01*
X0109730Y0060902D01*
X0110497Y0060135D02*
X0111264Y0060902D01*
X0111264Y0058600D01*
X0110497Y0058600D02*
X0112032Y0058600D01*
D15*
X0066345Y0057620D02*
X0066345Y0057380D01*
X0157475Y0092500D02*
X0157715Y0092500D01*
D16*
X0061095Y0016000D02*
X0058595Y0018500D01*
X0058595Y0023500D01*
X0061095Y0026000D01*
X0066095Y0026000D01*
X0068595Y0023500D01*
X0071095Y0026000D01*
X0076095Y0026000D01*
X0078595Y0023500D01*
X0081095Y0026000D01*
X0086095Y0026000D01*
X0088595Y0023500D01*
X0091095Y0026000D01*
X0096095Y0026000D01*
X0098595Y0023500D01*
X0101095Y0026000D01*
X0106095Y0026000D01*
X0108595Y0023500D01*
X0108595Y0018500D01*
X0106095Y0016000D01*
X0101095Y0016000D01*
X0098595Y0018500D01*
X0096095Y0016000D01*
X0091095Y0016000D01*
X0088595Y0018500D01*
X0086095Y0016000D01*
X0081095Y0016000D01*
X0078595Y0018500D01*
X0076095Y0016000D01*
X0071095Y0016000D01*
X0068595Y0018500D01*
X0066095Y0016000D01*
X0061095Y0016000D01*
X0118284Y0089331D02*
X0120095Y0089331D01*
X0119175Y0090551D01*
X0120095Y0089331D02*
X0121906Y0089331D01*
X0120955Y0090551D02*
X0120195Y0089391D01*
X0121777Y0098743D02*
X0124927Y0098743D01*
X0124927Y0108586D01*
X0129651Y0108586D01*
X0121777Y0112523D02*
X0121777Y0098743D01*
X0145399Y0108586D02*
X0150124Y0108586D01*
X0150124Y0098743D01*
X0153273Y0098743D01*
X0153273Y0112523D01*
X0163740Y0116001D02*
X0169251Y0116001D01*
X0169251Y0098679D01*
X0163740Y0098679D01*
X0163740Y0093954D01*
X0170039Y0093954D01*
X0180669Y0093954D02*
X0180669Y0120726D01*
X0170039Y0120726D02*
X0163740Y0120726D01*
X0163740Y0116001D01*
X0145399Y0128271D02*
X0129651Y0128271D01*
M02*
