G75*
%MOIN*%
%OFA0B0*%
%FSLAX25Y25*%
%IPPOS*%
%LPD*%
%AMOC8*
5,1,8,0,0,1.08239X$1,22.5*
%
%ADD10R,0.03200X0.13200*%
%ADD11R,0.04331X0.03937*%
%ADD12R,0.05512X0.01378*%
%ADD13R,0.07480X0.07087*%
%ADD14R,0.07480X0.07480*%
%ADD15R,0.03937X0.04331*%
%ADD16R,0.03937X0.18110*%
%ADD17R,0.06299X0.13386*%
%ADD18C,0.01181*%
D10*
X0060095Y0070000D03*
X0065095Y0070000D03*
X0070095Y0070000D03*
X0075095Y0070000D03*
X0080095Y0070000D03*
X0085095Y0070000D03*
X0090095Y0070000D03*
X0095095Y0070000D03*
X0100095Y0070000D03*
X0105095Y0070000D03*
X0110095Y0070000D03*
X0110095Y0120000D03*
X0105095Y0120000D03*
X0100095Y0120000D03*
X0095095Y0120000D03*
X0090095Y0120000D03*
X0085095Y0120000D03*
X0080095Y0120000D03*
X0075095Y0120000D03*
D11*
X0062999Y0057500D03*
X0069692Y0057500D03*
D12*
X0164527Y0102222D03*
X0164527Y0104781D03*
X0164527Y0107340D03*
X0164527Y0109899D03*
X0164527Y0112458D03*
D13*
X0174960Y0123088D03*
X0174960Y0091592D03*
D14*
X0174960Y0102340D03*
X0174960Y0112340D03*
D15*
X0157595Y0095846D03*
X0157595Y0089154D03*
D16*
X0141462Y0101893D03*
X0133588Y0101893D03*
D17*
X0124139Y0122366D03*
X0150911Y0122366D03*
D18*
X0121473Y0094831D02*
X0118717Y0094831D01*
X0121473Y0094831D02*
X0121473Y0092075D01*
X0118717Y0092075D01*
X0118717Y0094831D01*
X0118717Y0093255D02*
X0121473Y0093255D01*
X0121473Y0094435D02*
X0118717Y0094435D01*
X0118717Y0087925D02*
X0121473Y0087925D01*
X0121473Y0085169D01*
X0118717Y0085169D01*
X0118717Y0087925D01*
X0118717Y0086349D02*
X0121473Y0086349D01*
X0121473Y0087529D02*
X0118717Y0087529D01*
M02*
